Font-BoldItalic.ufo
<glyph name="exclam" format="1">
  <advance width="648"/>
  <unicode hex="0021"/>
  <outline>
    <contour>
      <point x="62" y="0" type="line"/>
      <point x="312" y="0" type="line"/>
      <point x="355" y="245" type="line"/>
      <point x="105" y="245" type="line"/>
    </contour>
    <contour>
      <point x="222" y="410" type="curve"/>
      <point x="298" y="410" type="line"/>
      <point x="298" y="410"/>
      <point x="565" y="1359"/>
      <point x="586" y="1477" type="curve"/>
      <point x="327" y="1477" type="line"/>
      <point x="306" y="1359"/>
      <point x="222" y="410"/>
    </contour>
  </outline>
</glyph>
<glyph name="percent" format="1">
  <advance width="2114"/>
  <unicode hex="0025"/>
  <outline>
    <contour>
      <point x="508" y="794" type="curve" smooth="yes"/>
      <point x="422" y="794"/>
      <point x="396" y="840"/>
      <point x="396" y="912" type="curve" smooth="yes"/>
      <point x="396" y="946"/>
      <point x="402" y="985"/>
      <point x="410" y="1029" type="curve" smooth="yes"/>
      <point x="425" y="1118" type="line"/>
      <point x="448" y="1248"/>
      <point x="473" y="1337"/>
      <point x="604" y="1337" type="curve" smooth="yes"/>
      <point x="694" y="1337"/>
      <point x="720" y="1296"/>
      <point x="720" y="1228" type="curve" smooth="yes"/>
      <point x="720" y="1196"/>
      <point x="714" y="1158"/>
      <point x="707" y="1116" type="curve" smooth="yes"/>
      <point x="692" y="1029" type="line" smooth="yes"/>
      <point x="668" y="894"/>
      <point x="635" y="794"/>
    </contour>
    <contour>
      <point x="485" y="664" type="curve" smooth="yes"/>
      <point x="715" y="664"/>
      <point x="817" y="814"/>
      <point x="857" y="1043" type="curve"/>
      <point x="867" y="1097" type="line" smooth="yes"/>
      <point x="875" y="1144"/>
      <point x="879" y="1186"/>
      <point x="879" y="1225" type="curve" smooth="yes"/>
      <point x="879" y="1379"/>
      <point x="811" y="1467"/>
      <point x="627" y="1467" type="curve"/>
      <point x="396" y="1467"/>
      <point x="303" y="1329"/>
      <point x="262" y="1096" type="curve"/>
      <point x="252" y="1043" type="line" smooth="yes"/>
      <point x="243" y="995"/>
      <point x="239" y="950"/>
      <point x="239" y="909" type="curve" smooth="yes"/>
      <point x="239" y="758"/>
      <point x="304" y="664"/>
    </contour>
    <contour>
      <point x="1506" y="111" type="curve" smooth="yes"/>
      <point x="1419" y="111"/>
      <point x="1393" y="157"/>
      <point x="1393" y="230" type="curve" smooth="yes"/>
      <point x="1393" y="264"/>
      <point x="1399" y="303"/>
      <point x="1406" y="346" type="curve" smooth="yes"/>
      <point x="1422" y="435" type="line" smooth="yes"/>
      <point x="1445" y="565"/>
      <point x="1470" y="654"/>
      <point x="1602" y="654" type="curve" smooth="yes"/>
      <point x="1692" y="654"/>
      <point x="1717" y="613"/>
      <point x="1717" y="545" type="curve" smooth="yes"/>
      <point x="1717" y="513"/>
      <point x="1711" y="475"/>
      <point x="1704" y="433" type="curve" smooth="yes"/>
      <point x="1688" y="346" type="line"/>
      <point x="1665" y="211"/>
      <point x="1632" y="111"/>
    </contour>
    <contour>
      <point x="1483" y="-19" type="curve" smooth="yes"/>
      <point x="1713" y="-19"/>
      <point x="1813" y="131"/>
      <point x="1854" y="360" type="curve"/>
      <point x="1863" y="414" type="line" smooth="yes"/>
      <point x="1871" y="461"/>
      <point x="1875" y="505"/>
      <point x="1875" y="544" type="curve" smooth="yes"/>
      <point x="1875" y="697"/>
      <point x="1808" y="784"/>
      <point x="1625" y="784" type="curve" smooth="yes"/>
      <point x="1394" y="784"/>
      <point x="1299" y="646"/>
      <point x="1258" y="413" type="curve"/>
      <point x="1249" y="360" type="line" smooth="yes"/>
      <point x="1241" y="312"/>
      <point x="1236" y="268"/>
      <point x="1236" y="227" type="curve" smooth="yes"/>
      <point x="1236" y="75"/>
      <point x="1302" y="-19"/>
    </contour>
    <contour>
      <point x="566" y="0" type="line"/>
      <point x="744" y="0" type="line"/>
      <point x="1537" y="1446" type="line"/>
      <point x="1364" y="1446" type="line"/>
    </contour>
  </outline>
</glyph>
<glyph name="parenleft" format="1">
  <advance width="946"/>
  <unicode hex="0028"/>
  <outline>
    <contour>
      <point x="629" y="-159" type="line"/>
      <point x="667" y="56" type="line"/>
      <point x="499" y="56"/>
      <point x="417" y="98"/>
      <point x="417" y="256" type="curve" smooth="yes"/>
      <point x="417" y="294"/>
      <point x="422" y="338"/>
      <point x="431" y="390" type="curve" smooth="yes"/>
      <point x="542" y="1020" type="line" smooth="yes"/>
      <point x="590" y="1291"/>
      <point x="691" y="1359"/>
      <point x="897" y="1359" type="curve"/>
      <point x="935" y="1575" type="line"/>
      <point x="932" y="1575" type="line" smooth="yes"/>
      <point x="496" y="1575"/>
      <point x="320" y="1341"/>
      <point x="257" y="986" type="curve" smooth="yes"/>
      <point x="157" y="420" type="line" smooth="yes"/>
      <point x="146" y="357"/>
      <point x="140" y="298"/>
      <point x="140" y="244" type="curve" smooth="yes"/>
      <point x="140" y="-6"/>
      <point x="268" y="-159"/>
      <point x="626" y="-159" type="curve" smooth="yes"/>
    </contour>
  </outline>
</glyph>
<glyph name="parenright" format="1">
  <advance width="946"/>
  <unicode hex="0029"/>
  <outline>
    <contour>
      <point x="28" y="-159" type="line"/>
      <point x="31" y="-159" type="line" smooth="yes"/>
      <point x="467" y="-159"/>
      <point x="642" y="75"/>
      <point x="705" y="430" type="curve" smooth="yes"/>
      <point x="805" y="996" type="line" smooth="yes"/>
      <point x="816" y="1059"/>
      <point x="822" y="1118"/>
      <point x="822" y="1172" type="curve" smooth="yes"/>
      <point x="822" y="1422"/>
      <point x="694" y="1575"/>
      <point x="337" y="1575" type="curve" smooth="yes"/>
      <point x="334" y="1575" type="line"/>
      <point x="296" y="1359" type="line"/>
      <point x="464" y="1359"/>
      <point x="546" y="1317"/>
      <point x="546" y="1159" type="curve" smooth="yes"/>
      <point x="546" y="1121"/>
      <point x="541" y="1077"/>
      <point x="532" y="1025" type="curve" smooth="yes"/>
      <point x="421" y="395" type="line" smooth="yes"/>
      <point x="373" y="125"/>
      <point x="272" y="57"/>
      <point x="66" y="57" type="curve"/>
    </contour>
  </outline>
</glyph>
<glyph name="plus" format="1">
  <advance width="966"/>
  <unicode hex="002B"/>
  <outline>
    <contour>
      <point x="329" y="156" type="line"/>
      <point x="493" y="156" type="line"/>
      <point x="552" y="487" type="line"/>
      <point x="821" y="487" type="line"/>
      <point x="849" y="649" type="line"/>
      <point x="580" y="649" type="line"/>
      <point x="637" y="968" type="line"/>
      <point x="473" y="968" type="line"/>
      <point x="416" y="649" type="line"/>
      <point x="147" y="649" type="line"/>
      <point x="119" y="487" type="line"/>
      <point x="388" y="487" type="line"/>
    </contour>
  </outline>
</glyph>
<glyph name="hyphen" format="1">
  <advance width="968"/>
  <unicode hex="002D"/>
  <outline>
    <contour>
      <point x="119" y="494" type="line"/>
      <point x="823" y="494" type="line"/>
      <point x="849" y="642" type="line"/>
      <point x="145" y="642" type="line"/>
    </contour>
    <contour>
      <point x="476" y="569" type="move" name="_mid"/>
    </contour>
  </outline>
</glyph>
<glyph name="period" format="1">
  <advance width="634"/>
  <unicode hex="002E"/>
  <outline>
    <contour>
      <point x="139" y="0" type="line"/>
      <point x="437" y="0" type="line"/>
      <point x="487" y="284" type="line"/>
      <point x="189" y="284" type="line"/>
    </contour>
  </outline>
</glyph>
<glyph name="slash" format="1">
  <advance width="1024"/>
  <unicode hex="002F"/>
  <outline>
    <contour>
      <point x="-28" y="0" type="line"/>
      <point x="215" y="0" type="line"/>
      <point x="1052" y="1516" type="line"/>
      <point x="809" y="1516" type="line"/>
    </contour>
  </outline>
</glyph>
<glyph name="two" format="1">
  <advance width="1379"/>
  <unicode hex="0032"/>
  <outline>
    <contour>
      <point x="145" y="0" type="line"/>
      <point x="1033" y="0" type="line"/>
      <point x="1075" y="235" type="line"/>
      <point x="514" y="235" type="line"/>
      <point x="873" y="526" type="line" smooth="yes"/>
      <point x="1088" y="700"/>
      <point x="1196" y="843"/>
      <point x="1234" y="1060" type="curve" smooth="yes"/>
      <point x="1240" y="1096"/>
      <point x="1244" y="1130"/>
      <point x="1244" y="1163" type="curve" smooth="yes"/>
      <point x="1244" y="1361"/>
      <point x="1123" y="1496"/>
      <point x="841" y="1496" type="curve" smooth="yes"/>
      <point x="450" y="1496"/>
      <point x="306" y="1337"/>
      <point x="245" y="992" type="curve"/>
      <point x="545" y="992" type="line"/>
      <point x="582" y="1200"/>
      <point x="651" y="1267"/>
      <point x="809" y="1267" type="curve" smooth="yes"/>
      <point x="899" y="1267"/>
      <point x="953" y="1215"/>
      <point x="953" y="1117" type="curve" smooth="yes"/>
      <point x="953" y="1099"/>
      <point x="951" y="1079"/>
      <point x="947" y="1058" type="curve" smooth="yes"/>
      <point x="927" y="947"/>
      <point x="882" y="864"/>
      <point x="736" y="737" type="curve" smooth="yes"/>
      <point x="149" y="226" type="line"/>
    </contour>
  </outline>
</glyph>
<glyph name="three" format="1">
  <advance width="1379"/>
  <unicode hex="0033"/>
  <outline>
    <contour>
      <point x="571" y="-20" type="curve" smooth="yes"/>
      <point x="899" y="-20"/>
      <point x="1110" y="139"/>
      <point x="1161" y="426" type="curve" smooth="yes"/>
      <point x="1167" y="459"/>
      <point x="1170" y="489"/>
      <point x="1170" y="518" type="curve" smooth="yes"/>
      <point x="1170" y="653"/>
      <point x="1107" y="745"/>
      <point x="988" y="780" type="curve"/>
      <point x="1137" y="811"/>
      <point x="1236" y="926"/>
      <point x="1267" y="1101" type="curve" smooth="yes"/>
      <point x="1272" y="1130"/>
      <point x="1275" y="1158"/>
      <point x="1275" y="1184" type="curve" smooth="yes"/>
      <point x="1275" y="1385"/>
      <point x="1123" y="1496"/>
      <point x="841" y="1496" type="curve"/>
      <point x="531" y="1496"/>
      <point x="328" y="1331"/>
      <point x="273" y="1033" type="curve"/>
      <point x="552" y="1033" type="line"/>
      <point x="578" y="1187"/>
      <point x="668" y="1272"/>
      <point x="805" y="1272" type="curve" smooth="yes"/>
      <point x="920" y="1272"/>
      <point x="982" y="1222"/>
      <point x="982" y="1130" type="curve" smooth="yes"/>
      <point x="982" y="1117"/>
      <point x="981" y="1102"/>
      <point x="978" y="1087" type="curve" smooth="yes"/>
      <point x="954" y="952"/>
      <point x="881" y="877"/>
      <point x="662" y="877" type="curve"/>
      <point x="626" y="678" type="line"/>
      <point x="813" y="678"/>
      <point x="877" y="619"/>
      <point x="877" y="509" type="curve" smooth="yes"/>
      <point x="877" y="488"/>
      <point x="874" y="464"/>
      <point x="870" y="439" type="curve" smooth="yes"/>
      <point x="842" y="276"/>
      <point x="751" y="201"/>
      <point x="613" y="201" type="curve" smooth="yes"/>
      <point x="491" y="201"/>
      <point x="435" y="260"/>
      <point x="435" y="368" type="curve" smooth="yes"/>
      <point x="435" y="389"/>
      <point x="437" y="412"/>
      <point x="441" y="436" type="curve"/>
      <point x="162" y="436" type="line"/>
      <point x="156" y="400"/>
      <point x="154" y="365"/>
      <point x="154" y="333" type="curve" smooth="yes"/>
      <point x="154" y="105"/>
      <point x="293" y="-20"/>
    </contour>
  </outline>
</glyph>
<glyph name="four" format="1">
  <advance width="1379"/>
  <unicode hex="0034"/>
  <outline>
    <contour>
      <point x="709" y="0" type="line"/>
      <point x="946" y="0" type="line"/>
      <point x="996" y="282" type="line"/>
      <point x="1216" y="282" type="line"/>
      <point x="1259" y="528" type="line"/>
      <point x="1039" y="528" type="line"/>
      <point x="1098" y="862" type="line"/>
      <point x="861" y="862" type="line"/>
      <point x="802" y="528" type="line"/>
      <point x="457" y="528" type="line"/>
      <point x="1054" y="1476" type="line"/>
      <point x="749" y="1476" type="line"/>
      <point x="134" y="531" type="line"/>
      <point x="90" y="282" type="line"/>
      <point x="759" y="282" type="line"/>
    </contour>
  </outline>
</glyph>
<glyph name="five" format="1">
  <advance width="1379"/>
  <unicode hex="0035"/>
  <outline>
    <contour>
      <point x="585" y="-20" type="curve" smooth="yes"/>
      <point x="928" y="-20"/>
      <point x="1177" y="179"/>
      <point x="1229" y="474" type="curve" smooth="yes"/>
      <point x="1235" y="508"/>
      <point x="1238" y="541"/>
      <point x="1238" y="573" type="curve" smooth="yes"/>
      <point x="1238" y="794"/>
      <point x="1095" y="957"/>
      <point x="835" y="957" type="curve" smooth="yes"/>
      <point x="736" y="957"/>
      <point x="603" y="935"/>
      <point x="527" y="867" type="curve"/>
      <point x="632" y="1230" type="line"/>
      <point x="1250" y="1230" type="line"/>
      <point x="1293" y="1476" type="line"/>
      <point x="451" y="1476" type="line"/>
      <point x="235" y="711" type="line"/>
      <point x="430" y="604" type="line"/>
      <point x="539" y="692"/>
      <point x="658" y="707"/>
      <point x="738" y="707" type="curve" smooth="yes"/>
      <point x="859" y="707"/>
      <point x="943" y="637"/>
      <point x="943" y="521" type="curve" smooth="yes"/>
      <point x="943" y="506"/>
      <point x="942" y="490"/>
      <point x="939" y="473" type="curve" smooth="yes"/>
      <point x="904" y="274"/>
      <point x="772" y="203"/>
      <point x="608" y="203" type="curve" smooth="yes"/>
      <point x="497" y="203"/>
      <point x="341" y="227"/>
      <point x="194" y="325" type="curve"/>
      <point x="80" y="126" type="line"/>
      <point x="154" y="64"/>
      <point x="358" y="-20"/>
    </contour>
  </outline>
</glyph>
<glyph name="nine" format="1">
  <advance width="1379"/>
  <unicode hex="0039"/>
  <outline>
    <contour>
      <point x="840" y="1496" type="curve" smooth="yes"/>
      <point x="445" y="1496"/>
      <point x="204" y="1285"/>
      <point x="204" y="894" type="curve" smooth="yes"/>
      <point x="204" y="649"/>
      <point x="356" y="569"/>
      <point x="624" y="569" type="curve" smooth="yes"/>
      <point x="654" y="569"/>
      <point x="742" y="578"/>
      <point x="780" y="589" type="curve"/>
      <point x="354" y="0" type="line"/>
      <point x="674" y="0" type="line"/>
      <point x="1057" y="528" type="line"/>
      <point x="1161" y="677"/>
      <point x="1246" y="833"/>
      <point x="1280" y="1024" type="curve" smooth="yes"/>
      <point x="1287" y="1063"/>
      <point x="1290" y="1099"/>
      <point x="1290" y="1133" type="curve" smooth="yes"/>
      <point x="1290" y="1367"/>
      <point x="1133" y="1496"/>
    </contour>
    <contour>
      <point x="493" y="942" type="curve" smooth="yes"/>
      <point x="493" y="1153"/>
      <point x="605" y="1282"/>
      <point x="798" y="1282" type="curve" smooth="yes"/>
      <point x="927" y="1282"/>
      <point x="996" y="1219"/>
      <point x="996" y="1103" type="curve" smooth="yes"/>
      <point x="996" y="1083"/>
      <point x="994" y="1062"/>
      <point x="990" y="1039" type="curve" smooth="yes"/>
      <point x="957" y="848"/>
      <point x="888" y="782"/>
      <point x="713" y="782" type="curve" smooth="yes"/>
      <point x="557" y="782"/>
      <point x="493" y="823"/>
    </contour>
  </outline>
</glyph>
<glyph name="less" format="1">
  <advance width="1024"/>
  <unicode hex="003C"/>
  <outline>
    <contour>
      <point x="763" y="31" type="line"/>
      <point x="804" y="262" type="line"/>
      <point x="293" y="556" type="line"/>
      <point x="908" y="850" type="line"/>
      <point x="949" y="1081" type="line"/>
      <point x="131" y="664" type="line"/>
      <point x="92" y="445" type="line"/>
    </contour>
  </outline>
</glyph>
<glyph name="at" format="1">
  <advance width="2048"/>
  <unicode hex="0040"/>
  <outline>
    <contour>
      <point x="908" y="-477" type="curve"/>
      <point x="1152" y="-477"/>
      <point x="1415" y="-423"/>
      <point x="1607" y="-375" type="curve"/>
      <point x="1584" y="-172" type="line"/>
      <point x="1416" y="-206"/>
      <point x="1186" y="-256"/>
      <point x="972" y="-256" type="curve" smooth="yes"/>
      <point x="675" y="-256"/>
      <point x="450" y="-158"/>
      <point x="450" y="184" type="curve" smooth="yes"/>
      <point x="450" y="238"/>
      <point x="455" y="297"/>
      <point x="467" y="363" type="curve" smooth="yes"/>
      <point x="533" y="741" type="line" smooth="yes"/>
      <point x="622" y="1246"/>
      <point x="828" y="1320"/>
      <point x="1201" y="1320" type="curve" smooth="yes"/>
      <point x="1489" y="1320"/>
      <point x="1575" y="1239"/>
      <point x="1575" y="1066" type="curve" smooth="yes"/>
      <point x="1575" y="1017"/>
      <point x="1568" y="960"/>
      <point x="1557" y="895" type="curve"/>
      <point x="1557" y="895"/>
      <point x="1233" y="819"/>
      <point x="1191" y="809" type="curve" smooth="yes"/>
      <point x="811" y="713"/>
      <point x="740" y="583"/>
      <point x="712" y="428" type="curve" smooth="yes"/>
      <point x="707" y="402"/>
      <point x="705" y="377"/>
      <point x="705" y="353" type="curve" smooth="yes"/>
      <point x="705" y="158"/>
      <point x="856" y="53"/>
      <point x="1053" y="53" type="curve" smooth="yes"/>
      <point x="1211" y="53"/>
      <point x="1381" y="119"/>
      <point x="1460" y="208" type="curve"/>
      <point x="1483" y="127"/>
      <point x="1505" y="59"/>
      <point x="1660" y="59" type="curve" smooth="yes"/>
      <point x="1766" y="59" type="line"/>
      <point x="1821" y="259" type="line"/>
      <point x="1751" y="259"/>
      <point x="1730" y="278"/>
      <point x="1730" y="326" type="curve" smooth="yes"/>
      <point x="1730" y="344"/>
      <point x="1733" y="367"/>
      <point x="1738" y="394" type="curve" smooth="yes"/>
      <point x="1819" y="863" type="line" smooth="yes"/>
      <point x="1833" y="942"/>
      <point x="1841" y="1014"/>
      <point x="1841" y="1078" type="curve" smooth="yes"/>
      <point x="1841" y="1383"/>
      <point x="1669" y="1523"/>
      <point x="1190" y="1523" type="curve" smooth="yes"/>
      <point x="635" y="1523"/>
      <point x="370" y="1260"/>
      <point x="284" y="770" type="curve"/>
      <point x="209" y="348" type="line" smooth="yes"/>
      <point x="195" y="266"/>
      <point x="188" y="192"/>
      <point x="188" y="124" type="curve" smooth="yes"/>
      <point x="188" y="-322"/>
      <point x="700" y="-304"/>
    </contour>
    <contour>
      <point x="1141" y="267" type="curve" smooth="yes"/>
      <point x="1042" y="267"/>
      <point x="965" y="303"/>
      <point x="965" y="404" type="curve" smooth="yes"/>
      <point x="965" y="417"/>
      <point x="966" y="430"/>
      <point x="969" y="445" type="curve" smooth="yes"/>
      <point x="988" y="552"/>
      <point x="1044" y="617"/>
      <point x="1234" y="666" type="curve" smooth="yes"/>
      <point x="1283" y="678"/>
      <point x="1525" y="741"/>
      <point x="1531" y="744" type="curve"/>
      <point x="1466" y="377" type="line"/>
      <point x="1447" y="325"/>
      <point x="1263" y="267"/>
    </contour>
  </outline>
</glyph>
<glyph name="A" format="1">
  <advance width="1540"/>
  <unicode hex="0041"/>
  <outline>
    <contour>
      <point x="-46" y="0" type="line"/>
      <point x="261" y="0" type="line"/>
      <point x="396" y="281" type="line"/>
      <point x="980" y="281" type="line"/>
      <point x="1014" y="0" type="line"/>
      <point x="1326" y="0" type="line"/>
      <point x="1094" y="1476" type="line"/>
      <point x="700" y="1476" type="line"/>
    </contour>
    <contour>
      <point x="490" y="479" type="line"/>
      <point x="863" y="1245" type="line"/>
      <point x="958" y="479" type="line"/>
    </contour>
    <contour>
      <point x="1158" y="0" type="move" name="ogonek"/>
    </contour>
    <contour>
      <point x="911" y="1476" type="move" name="top"/>
    </contour>
  </outline>
</glyph>
<glyph name="D" format="1">
  <advance width="1564"/>
  <unicode hex="0044"/>
  <outline>
    <contour>
      <point x="420" y="231" type="line"/>
      <point x="598" y="1245" type="line"/>
      <point x="916" y="1245" type="line" smooth="yes"/>
      <point x="1088" y="1245"/>
      <point x="1152" y="1186"/>
      <point x="1152" y="1073" type="curve" smooth="yes"/>
      <point x="1152" y="1051"/>
      <point x="1150" y="1026"/>
      <point x="1145" y="1000" type="curve" smooth="yes"/>
      <point x="1052" y="470" type="line" smooth="yes"/>
      <point x="1023" y="306"/>
      <point x="947" y="231"/>
      <point x="738" y="231" type="curve" smooth="yes"/>
    </contour>
    <contour>
      <point x="82" y="0" type="line"/>
      <point x="723" y="0" type="line" smooth="yes"/>
      <point x="1138" y="0"/>
      <point x="1303" y="213"/>
      <point x="1355" y="508" type="curve" smooth="yes"/>
      <point x="1435" y="961" type="line" smooth="yes"/>
      <point x="1444" y="1011"/>
      <point x="1449" y="1059"/>
      <point x="1449" y="1105" type="curve" smooth="yes"/>
      <point x="1449" y="1322"/>
      <point x="1336" y="1476"/>
      <point x="982" y="1476" type="curve" smooth="yes"/>
      <point x="342" y="1476" type="line"/>
    </contour>
    <contour>
      <point x="383" y="781" type="move" name="mid"/>
    </contour>
    <contour>
      <point x="909" y="1476" type="move" name="top"/>
    </contour>
  </outline>
</glyph>
<glyph name="E" format="1">
  <advance width="1316"/>
  <unicode hex="0045"/>
  <outline>
    <contour>
      <point x="82" y="0" type="line"/>
      <point x="1060" y="0" type="line"/>
      <point x="1099" y="224" type="line"/>
      <point x="417" y="224" type="line"/>
      <point x="492" y="646" type="line"/>
      <point x="1087" y="646" type="line"/>
      <point x="1125" y="860" type="line"/>
      <point x="530" y="860" type="line"/>
      <point x="599" y="1252" type="line"/>
      <point x="1270" y="1252" type="line"/>
      <point x="1309" y="1476" type="line"/>
      <point x="342" y="1476" type="line"/>
    </contour>
    <contour>
      <point x="597" y="0" type="move" name="bot"/>
    </contour>
    <contour>
      <point x="762" y="0" type="move" name="ogonek"/>
    </contour>
    <contour>
      <point x="873" y="1476" type="move" name="top"/>
    </contour>
  </outline>
</glyph>
<glyph name="F" format="1">
  <advance width="1195"/>
  <unicode hex="0046"/>
  <outline>
    <contour>
      <point x="82" y="0" type="line"/>
      <point x="379" y="0" type="line"/>
      <point x="491" y="634" type="line"/>
      <point x="1046" y="634" type="line"/>
      <point x="1083" y="847" type="line"/>
      <point x="528" y="847" type="line"/>
      <point x="599" y="1249" type="line"/>
      <point x="1195" y="1249" type="line"/>
      <point x="1235" y="1476" type="line"/>
      <point x="342" y="1476" type="line"/>
    </contour>
    <contour>
      <point x="828" y="1476" type="move" name="top"/>
    </contour>
  </outline>
</glyph>
<glyph name="G" format="1">
  <advance width="1623"/>
  <unicode hex="0047"/>
  <outline>
    <contour>
      <point x="686" y="-26" type="curve" smooth="yes"/>
      <point x="1005" y="-26"/>
      <point x="1100" y="123"/>
      <point x="1123" y="170" type="curve"/>
      <point x="1140" y="0" type="line"/>
      <point x="1297" y="0" type="line"/>
      <point x="1430" y="757" type="line"/>
      <point x="864" y="757" type="line"/>
      <point x="830" y="562" type="line"/>
      <point x="1128" y="562" type="line"/>
      <point x="1109" y="454" type="line" smooth="yes"/>
      <point x="1073" y="252"/>
      <point x="952" y="207"/>
      <point x="727" y="207" type="curve" smooth="yes"/>
      <point x="530" y="207"/>
      <point x="410" y="243"/>
      <point x="410" y="391" type="curve" smooth="yes"/>
      <point x="410" y="410"/>
      <point x="412" y="431"/>
      <point x="416" y="454" type="curve" smooth="yes"/>
      <point x="514" y="1012" type="line" smooth="yes"/>
      <point x="550" y="1215"/>
      <point x="695" y="1268"/>
      <point x="915" y="1268" type="curve" smooth="yes"/>
      <point x="1104" y="1268"/>
      <point x="1192" y="1232"/>
      <point x="1192" y="1099" type="curve" smooth="yes"/>
      <point x="1192" y="1076"/>
      <point x="1189" y="1050"/>
      <point x="1184" y="1021" type="curve" smooth="yes"/>
      <point x="1174" y="962" type="line"/>
      <point x="1469" y="984" type="line"/>
      <point x="1474" y="1007" type="line"/>
      <point x="1483" y="1058"/>
      <point x="1488" y="1106"/>
      <point x="1488" y="1152" type="curve" smooth="yes"/>
      <point x="1488" y="1359"/>
      <point x="1376" y="1501"/>
      <point x="956" y="1501" type="curve" smooth="yes"/>
      <point x="427" y="1501"/>
      <point x="263" y="1275"/>
      <point x="210" y="977" type="curve" smooth="yes"/>
      <point x="123" y="484" type="line" smooth="yes"/>
      <point x="115" y="438"/>
      <point x="110" y="395"/>
      <point x="110" y="353" type="curve" smooth="yes"/>
      <point x="110" y="130"/>
      <point x="243" y="-26"/>
    </contour>
    <contour>
      <point x="638" y="0" type="move" name="bot"/>
    </contour>
    <contour>
      <point x="953" y="1476" type="move" name="top"/>
    </contour>
  </outline>
</glyph>
<glyph name="H" format="1">
  <advance width="1668"/>
  <unicode hex="0048"/>
  <outline>
    <contour>
      <point x="82" y="0" type="line"/>
      <point x="380" y="0" type="line"/>
      <point x="488" y="615" type="line"/>
      <point x="1136" y="615" type="line"/>
      <point x="1028" y="0" type="line"/>
      <point x="1326" y="0" type="line"/>
      <point x="1586" y="1476" type="line"/>
      <point x="1288" y="1476" type="line"/>
      <point x="1177" y="848" type="line"/>
      <point x="529" y="848" type="line"/>
      <point x="640" y="1476" type="line"/>
      <point x="342" y="1476" type="line"/>
    </contour>
    <contour>
      <point x="977" y="1476" type="move" name="top"/>
    </contour>
  </outline>
</glyph>
<glyph name="I" format="1">
  <advance width="1148"/>
  <unicode hex="0049"/>
  <outline>
    <contour>
      <point x="28" y="0" type="line"/>
      <point x="860" y="0" type="line"/>
      <point x="899" y="222" type="line"/>
      <point x="632" y="222" type="line"/>
      <point x="814" y="1255" type="line"/>
      <point x="1081" y="1255" type="line"/>
      <point x="1120" y="1476" type="line"/>
      <point x="288" y="1476" type="line"/>
      <point x="249" y="1255" type="line"/>
      <point x="518" y="1255" type="line"/>
      <point x="336" y="222" type="line"/>
      <point x="67" y="222" type="line"/>
    </contour>
    <contour>
      <point x="453" y="0" type="move" name="ogonek"/>
    </contour>
    <contour>
      <point x="726" y="1476" type="move" name="top"/>
    </contour>
  </outline>
</glyph>
<glyph name="J" format="1">
  <advance width="1222"/>
  <unicode hex="004A"/>
  <outline>
    <contour>
      <point x="372" y="-25" type="curve" smooth="yes"/>
      <point x="703" y="-25"/>
      <point x="932" y="138"/>
      <point x="982" y="422" type="curve" smooth="yes"/>
      <point x="1168" y="1476" type="line"/>
      <point x="363" y="1476" type="line"/>
      <point x="323" y="1250" type="line"/>
      <point x="831" y="1250" type="line"/>
      <point x="689" y="441" type="line" smooth="yes"/>
      <point x="666" y="313"/>
      <point x="580" y="209"/>
      <point x="394" y="209" type="curve" smooth="yes"/>
      <point x="290" y="209"/>
      <point x="151" y="242"/>
      <point x="62" y="287" type="curve"/>
      <point x="-46" y="67" type="line"/>
      <point x="73" y="6"/>
      <point x="228" y="-25"/>
    </contour>
    <contour>
      <point x="769" y="1476" type="move" name="top"/>
    </contour>
  </outline>
</glyph>
<glyph name="K" format="1">
  <advance width="1470"/>
  <unicode hex="004B"/>
  <outline>
    <contour>
      <point x="82" y="0" type="line"/>
      <point x="379" y="0" type="line"/>
      <point x="474" y="541" type="line"/>
      <point x="638" y="679" type="line"/>
      <point x="983" y="0" type="line"/>
      <point x="1318" y="0" type="line"/>
      <point x="906" y="804" type="line"/>
      <point x="1541" y="1476" type="line"/>
      <point x="1213" y="1476" type="line"/>
      <point x="513" y="760" type="line"/>
      <point x="639" y="1476" type="line"/>
      <point x="342" y="1476" type="line"/>
    </contour>
    <contour>
      <point x="652" y="0" type="move" name="bot"/>
    </contour>
    <contour>
      <point x="886" y="1476" type="move" name="top"/>
    </contour>
  </outline>
</glyph>
<glyph name="M" format="1">
  <advance width="1918"/>
  <unicode hex="004D"/>
  <outline>
    <contour>
      <point x="82" y="0" type="line"/>
      <point x="360" y="0" type="line"/>
      <point x="552" y="1087" type="line"/>
      <point x="806" y="429" type="line"/>
      <point x="1005" y="429" type="line"/>
      <point x="1490" y="1091" type="line"/>
      <point x="1298" y="0" type="line"/>
      <point x="1576" y="0" type="line"/>
      <point x="1836" y="1476" type="line"/>
      <point x="1503" y="1476" type="line"/>
      <point x="963" y="761" type="line"/>
      <point x="669" y="1476" type="line"/>
      <point x="342" y="1476" type="line"/>
    </contour>
    <contour>
      <point x="1114" y="1476" type="move" name="top"/>
    </contour>
  </outline>
</glyph>
<glyph name="N" format="1">
  <advance width="1678"/>
  <unicode hex="004E"/>
  <outline>
    <contour>
      <point x="82" y="0" type="line"/>
      <point x="349" y="0" type="line"/>
      <point x="524" y="996" type="line"/>
      <point x="1113" y="0" type="line"/>
      <point x="1336" y="0" type="line"/>
      <point x="1596" y="1476" type="line"/>
      <point x="1332" y="1476" type="line"/>
      <point x="1154" y="464" type="line"/>
      <point x="565" y="1476" type="line"/>
      <point x="342" y="1476" type="line"/>
    </contour>
    <contour>
      <point x="772" y="0" type="move" name="bot"/>
    </contour>
    <contour>
      <point x="994" y="1476" type="move" name="top"/>
    </contour>
  </outline>
</glyph>
<glyph name="P" format="1">
  <advance width="1408"/>
  <unicode hex="0050"/>
  <outline>
    <contour>
      <point x="82" y="0" type="line"/>
      <point x="379" y="0" type="line"/>
      <point x="469" y="509" type="line"/>
      <point x="722" y="509" type="line" smooth="yes"/>
      <point x="1108" y="509"/>
      <point x="1259" y="663"/>
      <point x="1319" y="1005" type="curve" smooth="yes"/>
      <point x="1328" y="1056"/>
      <point x="1333" y="1104"/>
      <point x="1333" y="1146" type="curve" smooth="yes"/>
      <point x="1333" y="1377"/>
      <point x="1196" y="1476"/>
      <point x="921" y="1476" type="curve" smooth="yes"/>
      <point x="342" y="1476" type="line"/>
    </contour>
    <contour>
      <point x="507" y="726" type="line"/>
      <point x="602" y="1265" type="line"/>
      <point x="912" y="1265" type="line" smooth="yes"/>
      <point x="1015" y="1265"/>
      <point x="1050" y="1200"/>
      <point x="1050" y="1104" type="curve" smooth="yes"/>
      <point x="1050" y="1070"/>
      <point x="1045" y="1031"/>
      <point x="1038" y="990" type="curve" smooth="yes"/>
      <point x="1007" y="813"/>
      <point x="957" y="726"/>
      <point x="807" y="726" type="curve" smooth="yes"/>
    </contour>
    <contour>
      <point x="858" y="1476" type="move" name="top"/>
    </contour>
  </outline>
</glyph>
<glyph name="Q" format="1">
  <advance width="1622"/>
  <unicode hex="0051"/>
  <outline>
    <contour>
      <point x="839" y="-534" type="line"/>
      <point x="1047" y="-426" type="line"/>
      <point x="873" y="-19" type="line"/>
      <point x="1272" y="25"/>
      <point x="1414" y="256"/>
      <point x="1460" y="517" type="curve" smooth="yes"/>
      <point x="1536" y="948" type="line" smooth="yes"/>
      <point x="1545" y="999"/>
      <point x="1550" y="1048"/>
      <point x="1550" y="1095" type="curve" smooth="yes"/>
      <point x="1550" y="1326"/>
      <point x="1425" y="1501"/>
      <point x="1001" y="1501" type="curve" smooth="yes"/>
      <point x="468" y="1501"/>
      <point x="305" y="1262"/>
      <point x="253" y="963" type="curve"/>
      <point x="171" y="501" type="line" smooth="yes"/>
      <point x="163" y="454"/>
      <point x="158" y="408"/>
      <point x="158" y="364" type="curve" smooth="yes"/>
      <point x="158" y="162"/>
      <point x="262" y="8"/>
      <point x="607" y="-21" type="curve"/>
    </contour>
    <contour>
      <point x="773" y="207" type="curve" smooth="yes"/>
      <point x="577" y="207"/>
      <point x="457" y="253"/>
      <point x="457" y="404" type="curve" smooth="yes"/>
      <point x="457" y="424"/>
      <point x="459" y="445"/>
      <point x="463" y="468" type="curve" smooth="yes"/>
      <point x="558" y="1003" type="line" smooth="yes"/>
      <point x="593" y="1205"/>
      <point x="740" y="1268"/>
      <point x="960" y="1268" type="curve" smooth="yes"/>
      <point x="1153" y="1268"/>
      <point x="1255" y="1218"/>
      <point x="1255" y="1074" type="curve" smooth="yes"/>
      <point x="1255" y="1053"/>
      <point x="1253" y="1029"/>
      <point x="1248" y="1003" type="curve" smooth="yes"/>
      <point x="1153" y="468" type="line" smooth="yes"/>
      <point x="1118" y="266"/>
      <point x="997" y="207"/>
    </contour>
  </outline>
</glyph>
<glyph name="S" format="1">
  <advance width="1281"/>
  <unicode hex="0053"/>
  <outline>
    <contour>
      <point x="784" y="1501" type="curve" smooth="yes"/>
      <point x="459" y="1501"/>
      <point x="189" y="1338"/>
      <point x="189" y="986" type="curve" smooth="yes"/>
      <point x="189" y="848"/>
      <point x="249" y="738"/>
      <point x="432" y="681" type="curve" smooth="yes"/>
      <point x="671" y="607" type="line" smooth="yes"/>
      <point x="810" y="564"/>
      <point x="845" y="514"/>
      <point x="845" y="452" type="curve" smooth="yes"/>
      <point x="845" y="439"/>
      <point x="843" y="426"/>
      <point x="841" y="412" type="curve" smooth="yes"/>
      <point x="819" y="287"/>
      <point x="766" y="207"/>
      <point x="587" y="207" type="curve" smooth="yes"/>
      <point x="404" y="207"/>
      <point x="252" y="265"/>
      <point x="149" y="325" type="curve"/>
      <point x="9" y="108" type="line"/>
      <point x="142" y="25"/>
      <point x="352" y="-26"/>
      <point x="553" y="-26" type="curve" smooth="yes"/>
      <point x="890" y="-26"/>
      <point x="1069" y="172"/>
      <point x="1113" y="422" type="curve" smooth="yes"/>
      <point x="1120" y="462"/>
      <point x="1124" y="499"/>
      <point x="1124" y="533" type="curve" smooth="yes"/>
      <point x="1124" y="695"/>
      <point x="1043" y="787"/>
      <point x="888" y="837" type="curve" smooth="yes"/>
      <point x="650" y="912" type="line" smooth="yes"/>
      <point x="531" y="949"/>
      <point x="488" y="989"/>
      <point x="488" y="1061" type="curve" smooth="yes"/>
      <point x="488" y="1217"/>
      <point x="596" y="1268"/>
      <point x="769" y="1268" type="curve" smooth="yes"/>
      <point x="913" y="1268"/>
      <point x="1036" y="1229"/>
      <point x="1136" y="1177" type="curve"/>
      <point x="1257" y="1386" type="line"/>
      <point x="1135" y="1465"/>
      <point x="979" y="1501"/>
    </contour>
    <contour>
      <point x="572" y="0" type="move" name="bot"/>
    </contour>
    <contour>
      <point x="800" y="1476" type="move" name="top"/>
    </contour>
  </outline>
</glyph>
<glyph name="T" format="1">
  <advance width="1194"/>
  <unicode hex="0054"/>
  <outline>
    <contour>
      <point x="319" y="0" type="line"/>
      <point x="615" y="0" type="line"/>
      <point x="835" y="1250" type="line"/>
      <point x="1246" y="1250" type="line"/>
      <point x="1286" y="1476" type="line"/>
      <point x="168" y="1476" type="line"/>
      <point x="128" y="1250" type="line"/>
      <point x="539" y="1250" type="line"/>
    </contour>
    <contour>
      <point x="607" y="762" type="move" name="mid"/>
    </contour>
    <contour>
      <point x="445" y="0" type="move" name="bot"/>
    </contour>
    <contour>
      <point x="731" y="1476" type="move" name="top"/>
    </contour>
  </outline>
</glyph>
<glyph name="U" format="1">
  <advance width="1606"/>
  <unicode hex="0055"/>
  <outline>
    <contour>
      <point x="679" y="-26" type="curve" smooth="yes"/>
      <point x="1177" y="-26"/>
      <point x="1321" y="199"/>
      <point x="1371" y="480" type="curve" smooth="yes"/>
      <point x="1547" y="1477" type="line"/>
      <point x="1250" y="1477" type="line"/>
      <point x="1069" y="455" type="line" smooth="yes"/>
      <point x="1035" y="263"/>
      <point x="929" y="207"/>
      <point x="721" y="207" type="curve" smooth="yes"/>
      <point x="541" y="207"/>
      <point x="435" y="248"/>
      <point x="435" y="390" type="curve" smooth="yes"/>
      <point x="435" y="410"/>
      <point x="437" y="431"/>
      <point x="441" y="455" type="curve" smooth="yes"/>
      <point x="622" y="1477" type="line"/>
      <point x="325" y="1477" type="line"/>
      <point x="147" y="468" type="line" smooth="yes"/>
      <point x="139" y="422"/>
      <point x="134" y="377"/>
      <point x="134" y="335" type="curve" smooth="yes"/>
      <point x="134" y="122"/>
      <point x="257" y="-26"/>
    </contour>
    <contour>
      <point x="761" y="0" type="move" name="ogonek"/>
    </contour>
    <contour>
      <point x="957" y="1476" type="move" name="top"/>
    </contour>
  </outline>
</glyph>
<glyph name="V" format="1">
  <advance width="1484"/>
  <unicode hex="0056"/>
  <outline>
    <contour>
      <point x="434" y="0" type="line"/>
      <point x="794" y="0" type="line"/>
      <point x="1574" y="1476" type="line"/>
      <point x="1259" y="1476" type="line"/>
      <point x="668" y="287" type="line"/>
      <point x="484" y="1476" type="line"/>
      <point x="170" y="1476" type="line"/>
    </contour>
  </outline>
</glyph>
<glyph name="Y" format="1">
  <advance width="1340"/>
  <unicode hex="0059"/>
  <outline>
    <contour>
      <point x="397" y="0" type="line"/>
      <point x="693" y="0" type="line"/>
      <point x="793" y="567" type="line"/>
      <point x="1452" y="1476" type="line"/>
      <point x="1152" y="1476" type="line"/>
      <point x="698" y="859" type="line"/>
      <point x="461" y="1476" type="line"/>
      <point x="148" y="1476" type="line"/>
      <point x="497" y="567" type="line"/>
    </contour>
    <contour>
      <point x="824" y="1476" type="move" name="top"/>
    </contour>
  </outline>
</glyph>
<glyph name="backslash" format="1">
  <advance width="1024"/>
  <unicode hex="005C"/>
  <outline>
    <contour>
      <point x="541" y="0" type="line"/>
      <point x="784" y="0" type="line"/>
      <point x="483" y="1516" type="line"/>
      <point x="240" y="1516" type="line"/>
    </contour>
  </outline>
</glyph>
<glyph name="bracketright" format="1">
  <advance width="842"/>
  <unicode hex="005D"/>
  <outline>
    <contour>
      <point x="-2" y="-89" type="line"/>
      <point x="480" y="-89" type="line"/>
      <point x="776" y="1592" type="line"/>
      <point x="294" y="1592" type="line"/>
      <point x="266" y="1431" type="line"/>
      <point x="476" y="1431" type="line"/>
      <point x="236" y="72" type="line"/>
      <point x="26" y="72" type="line"/>
    </contour>
  </outline>
</glyph>
<glyph name="asciicircum" format="1">
  <advance width="1257"/>
  <unicode hex="005E"/>
  <outline>
    <contour>
      <point x="12" y="511" type="line"/>
      <point x="249" y="511" type="line"/>
      <point x="660" y="1112" type="line"/>
      <point x="858" y="511" type="line"/>
      <point x="1085" y="511" type="line"/>
      <point x="813" y="1283" type="line"/>
      <point x="554" y="1283" type="line"/>
    </contour>
  </outline>
</glyph>
<glyph name="c" format="1">
  <advance width="1158"/>
  <unicode hex="0063"/>
  <outline>
    <contour>
      <point x="490" y="-23" type="curve" smooth="yes"/>
      <point x="835" y="-23"/>
      <point x="940" y="77"/>
      <point x="999" y="380" type="curve"/>
      <point x="745" y="380" type="line"/>
      <point x="713" y="197"/>
      <point x="675" y="168"/>
      <point x="530" y="168" type="curve" smooth="yes"/>
      <point x="423" y="168"/>
      <point x="370" y="197"/>
      <point x="370" y="278" type="curve" smooth="yes"/>
      <point x="370" y="291"/>
      <point x="371" y="306"/>
      <point x="374" y="322" type="curve" smooth="yes"/>
      <point x="451" y="756" type="line" smooth="yes"/>
      <point x="470" y="867"/>
      <point x="544" y="907"/>
      <point x="660" y="907" type="curve" smooth="yes"/>
      <point x="768" y="907"/>
      <point x="810" y="889"/>
      <point x="810" y="796" type="curve" smooth="yes"/>
      <point x="810" y="766"/>
      <point x="805" y="727"/>
      <point x="797" y="679" type="curve"/>
      <point x="1057" y="699" type="line"/>
      <point x="1065" y="744"/>
      <point x="1069" y="783"/>
      <point x="1069" y="819" type="curve" smooth="yes"/>
      <point x="1069" y="1031"/>
      <point x="934" y="1097"/>
      <point x="684" y="1097" type="curve" smooth="yes"/>
      <point x="403" y="1097"/>
      <point x="217" y="972"/>
      <point x="179" y="757" type="curve" smooth="yes"/>
      <point x="103" y="327" type="line" smooth="yes"/>
      <point x="98" y="297"/>
      <point x="95" y="268"/>
      <point x="95" y="240" type="curve" smooth="yes"/>
      <point x="95" y="92"/>
      <point x="181" y="-23"/>
    </contour>
    <contour>
      <point x="496" y="0" type="move" name="bot"/>
    </contour>
    <contour>
      <point x="707" y="1074" type="move" name="top"/>
    </contour>
  </outline>
</glyph>
<glyph name="e" format="1">
  <advance width="1181"/>
  <unicode hex="0065"/>
  <outline>
    <contour>
      <point x="503" y="-23" type="curve" smooth="yes"/>
      <point x="783" y="-23"/>
      <point x="957" y="32"/>
      <point x="1018" y="330" type="curve"/>
      <point x="766" y="330" type="line"/>
      <point x="732" y="168"/>
      <point x="667" y="166"/>
      <point x="542" y="166" type="curve" smooth="yes"/>
      <point x="429" y="166"/>
      <point x="368" y="179"/>
      <point x="368" y="265" type="curve" smooth="yes"/>
      <point x="368" y="278"/>
      <point x="369" y="293"/>
      <point x="372" y="310" type="curve" smooth="yes"/>
      <point x="403" y="485" type="line"/>
      <point x="1046" y="485" type="line"/>
      <point x="1092" y="745" type="line" smooth="yes"/>
      <point x="1097" y="773"/>
      <point x="1100" y="800"/>
      <point x="1100" y="825" type="curve" smooth="yes"/>
      <point x="1100" y="994"/>
      <point x="985" y="1097"/>
      <point x="697" y="1097" type="curve" smooth="yes"/>
      <point x="418" y="1097"/>
      <point x="217" y="974"/>
      <point x="178" y="755" type="curve" smooth="yes"/>
      <point x="105" y="336" type="line" smooth="yes"/>
      <point x="100" y="306"/>
      <point x="97" y="278"/>
      <point x="97" y="252" type="curve" smooth="yes"/>
      <point x="97" y="42"/>
      <point x="269" y="-23"/>
    </contour>
    <contour>
      <point x="432" y="651" type="line"/>
      <point x="453" y="772" type="line"/>
      <point x="474" y="886"/>
      <point x="561" y="907"/>
      <point x="670" y="907" type="curve" smooth="yes"/>
      <point x="767" y="907"/>
      <point x="843" y="898"/>
      <point x="843" y="811" type="curve" smooth="yes"/>
      <point x="843" y="801"/>
      <point x="842" y="790"/>
      <point x="840" y="777" type="curve" smooth="yes"/>
      <point x="818" y="651" type="line"/>
    </contour>
    <contour>
      <point x="507" y="0" type="move" name="bot"/>
    </contour>
    <contour>
      <point x="609" y="0" type="move" name="ogonek"/>
    </contour>
    <contour>
      <point x="713" y="1074" type="move" name="top"/>
    </contour>
  </outline>
</glyph>
<glyph name="k" format="1">
  <advance width="1211"/>
  <unicode hex="006B"/>
  <outline>
    <contour>
      <point x="36" y="0" type="line"/>
      <point x="308" y="0" type="line"/>
      <point x="374" y="374" type="line"/>
      <point x="516" y="497" type="line"/>
      <point x="764" y="0" type="line"/>
      <point x="1061" y="0" type="line"/>
      <point x="747" y="611" type="line"/>
      <point x="1233" y="1074" type="line"/>
      <point x="923" y="1074" type="line"/>
      <point x="414" y="602" type="line"/>
      <point x="576" y="1516" type="line"/>
      <point x="304" y="1516" type="line"/>
    </contour>
    <contour>
      <point x="530" y="0" type="move" name="bot"/>
    </contour>
    <contour>
      <point x="885" y="1305" type="move" name="top"/>
    </contour>
  </outline>
</glyph>
<glyph name="o" format="1">
  <advance width="1212"/>
  <unicode hex="006F"/>
  <outline>
    <contour>
      <point x="541" y="166" type="curve" smooth="yes"/>
      <point x="431" y="166"/>
      <point x="369" y="195"/>
      <point x="369" y="276" type="curve" smooth="yes"/>
      <point x="369" y="287"/>
      <point x="371" y="300"/>
      <point x="373" y="313" type="curve" smooth="yes"/>
      <point x="451" y="760" type="line" smooth="yes"/>
      <point x="471" y="869"/>
      <point x="553" y="907"/>
      <point x="671" y="907" type="curve" smooth="yes"/>
      <point x="779" y="907"/>
      <point x="843" y="877"/>
      <point x="843" y="796" type="curve" smooth="yes"/>
      <point x="843" y="785"/>
      <point x="841" y="773"/>
      <point x="839" y="760" type="curve" smooth="yes"/>
      <point x="761" y="313" type="line" smooth="yes"/>
      <point x="741" y="204"/>
      <point x="657" y="166"/>
    </contour>
    <contour>
      <point x="507" y="-23" type="curve" smooth="yes"/>
      <point x="856" y="-23"/>
      <point x="997" y="112"/>
      <point x="1035" y="325" type="curve" smooth="yes"/>
      <point x="1109" y="748" type="line" smooth="yes"/>
      <point x="1113" y="771"/>
      <point x="1115" y="793"/>
      <point x="1115" y="814" type="curve" smooth="yes"/>
      <point x="1115" y="993"/>
      <point x="967" y="1097"/>
      <point x="705" y="1097" type="curve" smooth="yes"/>
      <point x="410" y="1097"/>
      <point x="216" y="967"/>
      <point x="177" y="748" type="curve" smooth="yes"/>
      <point x="103" y="325" type="line" smooth="yes"/>
      <point x="98" y="297"/>
      <point x="96" y="271"/>
      <point x="96" y="246" type="curve" smooth="yes"/>
      <point x="96" y="78"/>
      <point x="212" y="-23"/>
    </contour>
    <contour>
      <point x="513" y="0" type="move" name="bot"/>
    </contour>
    <contour>
      <point x="578" y="0" type="move" name="ogonek"/>
    </contour>
    <contour>
      <point x="703" y="1074" type="move" name="top"/>
    </contour>
  </outline>
</glyph>
<glyph name="p" format="1">
  <advance width="1210"/>
  <unicode hex="0070"/>
  <outline>
    <contour>
      <point x="35" y="-410" type="line"/>
      <point x="307" y="-410" type="line"/>
      <point x="382" y="17" type="line"/>
      <point x="430" y="-6"/>
      <point x="495" y="-23"/>
      <point x="580" y="-23" type="curve" smooth="yes"/>
      <point x="883" y="-23"/>
      <point x="1050" y="142"/>
      <point x="1083" y="326" type="curve" smooth="yes"/>
      <point x="1158" y="751" type="line" smooth="yes"/>
      <point x="1162" y="774"/>
      <point x="1164" y="796"/>
      <point x="1164" y="818" type="curve" smooth="yes"/>
      <point x="1164" y="987"/>
      <point x="1040" y="1097"/>
      <point x="810" y="1097" type="curve" smooth="yes"/>
      <point x="693" y="1097"/>
      <point x="582" y="1056"/>
      <point x="501" y="1004" type="curve"/>
      <point x="487" y="1074" type="line"/>
      <point x="297" y="1074" type="line"/>
    </contour>
    <contour>
      <point x="591" y="166" type="curve" smooth="yes"/>
      <point x="486" y="166"/>
      <point x="431" y="205"/>
      <point x="417" y="213" type="curve"/>
      <point x="528" y="841" type="line"/>
      <point x="564" y="872"/>
      <point x="643" y="907"/>
      <point x="730" y="907" type="curve" smooth="yes"/>
      <point x="830" y="907"/>
      <point x="890" y="873"/>
      <point x="890" y="791" type="curve" smooth="yes"/>
      <point x="890" y="780"/>
      <point x="889" y="768"/>
      <point x="887" y="755" type="curve" smooth="yes"/>
      <point x="810" y="320" type="line" smooth="yes"/>
      <point x="791" y="211"/>
      <point x="715" y="166"/>
    </contour>
    <contour>
      <point x="829" y="1074" type="move" name="top"/>
    </contour>
  </outline>
</glyph>
<glyph name="r" format="1">
  <advance width="855"/>
  <unicode hex="0072"/>
  <outline>
    <contour>
      <point x="64" y="0" type="line"/>
      <point x="336" y="0" type="line"/>
      <point x="463" y="720" type="line"/>
      <point x="499" y="806"/>
      <point x="721" y="852"/>
      <point x="860" y="859" type="curve"/>
      <point x="907" y="1090" type="line"/>
      <point x="900" y="1091"/>
      <point x="892" y="1091"/>
      <point x="883" y="1091" type="curve" smooth="yes"/>
      <point x="781" y="1091"/>
      <point x="566" y="1037"/>
      <point x="503" y="946" type="curve"/>
      <point x="525" y="1074" type="line"/>
      <point x="253" y="1074" type="line"/>
    </contour>
    <contour>
      <point x="205" y="0" type="move" name="bot"/>
    </contour>
    <contour>
      <point x="635" y="1074" type="move" name="top"/>
    </contour>
  </outline>
</glyph>
<glyph name="s" format="1">
  <advance width="1048"/>
  <unicode hex="0073"/>
  <outline>
    <contour>
      <point x="446" y="-20" type="curve" smooth="yes"/>
      <point x="693" y="-20"/>
      <point x="907" y="98"/>
      <point x="907" y="390" type="curve" smooth="yes"/>
      <point x="907" y="506"/>
      <point x="853" y="580"/>
      <point x="714" y="626" type="curve" smooth="yes"/>
      <point x="504" y="696" type="line" smooth="yes"/>
      <point x="465" y="709"/>
      <point x="445" y="734"/>
      <point x="445" y="770" type="curve" smooth="yes"/>
      <point x="445" y="777"/>
      <point x="446" y="784"/>
      <point x="447" y="792" type="curve" smooth="yes"/>
      <point x="459" y="861"/>
      <point x="494" y="907"/>
      <point x="618" y="907" type="curve" smooth="yes"/>
      <point x="720" y="907"/>
      <point x="848" y="870"/>
      <point x="905" y="837" type="curve"/>
      <point x="999" y="1006" type="line"/>
      <point x="900" y="1060"/>
      <point x="764" y="1094"/>
      <point x="631" y="1094" type="curve" smooth="yes"/>
      <point x="419" y="1094"/>
      <point x="226" y="1011"/>
      <point x="186" y="785" type="curve" smooth="yes"/>
      <point x="181" y="760"/>
      <point x="179" y="736"/>
      <point x="179" y="713" type="curve" smooth="yes"/>
      <point x="179" y="610"/>
      <point x="228" y="532"/>
      <point x="356" y="489" type="curve" smooth="yes"/>
      <point x="578" y="415" type="line" smooth="yes"/>
      <point x="633" y="397"/>
      <point x="652" y="366"/>
      <point x="652" y="330" type="curve" smooth="yes"/>
      <point x="652" y="322"/>
      <point x="652" y="315"/>
      <point x="650" y="307" type="curve" smooth="yes"/>
      <point x="641" y="252"/>
      <point x="608" y="166"/>
      <point x="480" y="166" type="curve" smooth="yes"/>
      <point x="374" y="166"/>
      <point x="246" y="197"/>
      <point x="140" y="246" type="curve"/>
      <point x="52" y="61" type="line"/>
      <point x="179" y="11"/>
      <point x="318" y="-20"/>
    </contour>
    <contour>
      <point x="439" y="0" type="move" name="bot"/>
    </contour>
    <contour>
      <point x="669" y="1074" type="move" name="top"/>
    </contour>
  </outline>
</glyph>
<glyph name="t" format="1">
  <advance width="860"/>
  <unicode hex="0074"/>
  <outline>
    <contour>
      <point x="521" y="-12" type="curve" smooth="yes"/>
      <point x="618" y="-12" type="line"/>
      <point x="663" y="190" type="line"/>
      <point x="601" y="190" type="line" smooth="yes"/>
      <point x="462" y="190"/>
      <point x="422" y="212"/>
      <point x="422" y="284" type="curve" smooth="yes"/>
      <point x="422" y="305"/>
      <point x="426" y="330"/>
      <point x="431" y="360" type="curve" smooth="yes"/>
      <point x="527" y="901" type="line"/>
      <point x="782" y="901" type="line"/>
      <point x="812" y="1074" type="line"/>
      <point x="557" y="1074" type="line"/>
      <point x="618" y="1419" type="line"/>
      <point x="379" y="1419" type="line"/>
      <point x="293" y="1074" type="line"/>
      <point x="115" y="1074" type="line"/>
      <point x="85" y="901" type="line"/>
      <point x="255" y="901" type="line"/>
      <point x="156" y="341" type="line" smooth="yes"/>
      <point x="148" y="295"/>
      <point x="144" y="255"/>
      <point x="144" y="219" type="curve" smooth="yes"/>
      <point x="144" y="41"/>
      <point x="251" y="-12"/>
    </contour>
    <contour>
      <point x="467" y="1074" type="move" name="caron.alt"/>
    </contour>
    <contour>
      <point x="363" y="620" type="move" name="mid"/>
    </contour>
    <contour>
      <point x="522" y="1408" type="move" name="top"/>
    </contour>
    <contour>
      <point x="351" y="24" type="move" name="bot"/>
    </contour>
  </outline>
</glyph>
<glyph name="u" format="1">
  <advance width="1269"/>
  <unicode hex="0075"/>
  <outline>
    <contour>
      <point x="121" y="291" type="line" smooth="yes"/>
      <point x="117" y="270"/>
      <point x="115" y="249"/>
      <point x="115" y="229" type="curve" smooth="yes"/>
      <point x="115" y="76"/>
      <point x="227" y="-24"/>
      <point x="422" y="-24" type="curve" smooth="yes"/>
      <point x="563" y="-24"/>
      <point x="709" y="34"/>
      <point x="765" y="118" type="curve"/>
      <point x="752" y="0" type="line"/>
      <point x="1008" y="0" type="line"/>
      <point x="1198" y="1074" type="line"/>
      <point x="926" y="1074" type="line"/>
      <point x="798" y="350" type="line" smooth="yes"/>
      <point x="777" y="230"/>
      <point x="655" y="182"/>
      <point x="556" y="182" type="curve" smooth="yes"/>
      <point x="480" y="182"/>
      <point x="397" y="216"/>
      <point x="397" y="306" type="curve" smooth="yes"/>
      <point x="397" y="315"/>
      <point x="398" y="325"/>
      <point x="400" y="335" type="curve" smooth="yes"/>
      <point x="531" y="1074" type="line"/>
      <point x="259" y="1074" type="line"/>
    </contour>
    <contour>
      <point x="877" y="0" type="move" name="ogonek"/>
    </contour>
    <contour>
      <point x="740" y="1074" type="move" name="top"/>
    </contour>
  </outline>
</glyph>
<glyph name="v" format="1">
  <advance width="1171"/>
  <unicode hex="0076"/>
  <outline>
    <contour>
      <point x="355" y="0" type="line"/>
      <point x="644" y="0" type="line"/>
      <point x="1198" y="1074" type="line"/>
      <point x="941" y="1074" type="line"/>
      <point x="547" y="266" type="line"/>
      <point x="434" y="1074" type="line"/>
      <point x="163" y="1074" type="line"/>
    </contour>
  </outline>
</glyph>
<glyph name="w" format="1">
  <advance width="1692"/>
  <unicode hex="0077"/>
  <outline>
    <contour>
      <point x="270" y="0" type="line"/>
      <point x="528" y="0" type="line"/>
      <point x="888" y="741" type="line"/>
      <point x="977" y="0" type="line"/>
      <point x="1243" y="0" type="line"/>
      <point x="1719" y="1074" type="line"/>
      <point x="1466" y="1074" type="line"/>
      <point x="1149" y="295" type="line"/>
      <point x="1055" y="1074" type="line"/>
      <point x="834" y="1074" type="line"/>
      <point x="473" y="304" type="line"/>
      <point x="417" y="1074" type="line"/>
      <point x="163" y="1074" type="line"/>
    </contour>
    <contour>
      <point x="951" y="1074" type="move" name="top"/>
    </contour>
  </outline>
</glyph>
<glyph name="x" format="1">
  <advance width="1118"/>
  <unicode hex="0078"/>
  <outline>
    <contour>
      <point x="-41" y="0" type="line"/>
      <point x="248" y="0" type="line"/>
      <point x="532" y="338" type="line"/>
      <point x="698" y="0" type="line"/>
      <point x="969" y="0" type="line"/>
      <point x="702" y="536" type="line"/>
      <point x="1157" y="1074" type="line"/>
      <point x="880" y="1074" type="line"/>
      <point x="597" y="738" type="line"/>
      <point x="434" y="1074" type="line"/>
      <point x="150" y="1074" type="line"/>
      <point x="425" y="540" type="line"/>
    </contour>
  </outline>
</glyph>
<glyph name="y" format="1">
  <advance width="1120"/>
  <unicode hex="0079"/>
  <outline>
    <contour>
      <point x="33" y="-465" type="line"/>
      <point x="379" y="-435"/>
      <point x="469" y="-355"/>
      <point x="729" y="140" type="curve" smooth="yes"/>
      <point x="1220" y="1074" type="line"/>
      <point x="950" y="1074" type="line"/>
      <point x="600" y="353" type="line"/>
      <point x="448" y="1074" type="line"/>
      <point x="186" y="1074" type="line"/>
      <point x="407" y="36" type="line"/>
      <point x="303" y="-198"/>
      <point x="249" y="-239"/>
      <point x="49" y="-260" type="curve"/>
    </contour>
    <contour>
      <point x="715" y="1074" type="move" name="top"/>
    </contour>
  </outline>
</glyph>
<glyph name="z" format="1">
  <advance width="995"/>
  <unicode hex="007A"/>
  <outline>
    <contour>
      <point x="26" y="0" type="line"/>
      <point x="785" y="0" type="line"/>
      <point x="819" y="190" type="line"/>
      <point x="355" y="190" type="line"/>
      <point x="936" y="910" type="line"/>
      <point x="965" y="1074" type="line"/>
      <point x="219" y="1074" type="line"/>
      <point x="186" y="888" type="line"/>
      <point x="633" y="888" type="line"/>
      <point x="56" y="167" type="line"/>
    </contour>
    <contour>
      <point x="398" y="0" type="move" name="bot"/>
    </contour>
    <contour>
      <point x="624" y="1074" type="move" name="top"/>
    </contour>
  </outline>
</glyph>
<glyph name="braceleft" format="1">
  <advance width="992"/>
  <unicode hex="007B"/>
  <outline>
    <contour>
      <point x="698" y="-128" type="curve"/>
      <point x="728" y="46" type="line"/>
      <point x="602" y="46"/>
      <point x="566" y="75"/>
      <point x="566" y="149" type="curve" smooth="yes"/>
      <point x="566" y="177"/>
      <point x="571" y="211"/>
      <point x="578" y="252" type="curve" smooth="yes"/>
      <point x="598" y="369" type="line" smooth="yes"/>
      <point x="608" y="425"/>
      <point x="613" y="474"/>
      <point x="613" y="517" type="curve" smooth="yes"/>
      <point x="613" y="626"/>
      <point x="579" y="692"/>
      <point x="499" y="722" type="curve"/>
      <point x="619" y="758"/>
      <point x="690" y="896"/>
      <point x="723" y="1080" type="curve"/>
      <point x="745" y="1210" type="line"/>
      <point x="770" y="1349"/>
      <point x="789" y="1382"/>
      <point x="964" y="1382" type="curve"/>
      <point x="994" y="1556" type="line"/>
      <point x="637" y="1556"/>
      <point x="520" y="1515"/>
      <point x="454" y="1139" type="curve" smooth="yes"/>
      <point x="436" y="1036" type="line" smooth="yes"/>
      <point x="407" y="873"/>
      <point x="356" y="833"/>
      <point x="209" y="833" type="curve"/>
      <point x="167" y="595" type="line"/>
      <point x="284" y="595"/>
      <point x="334" y="580"/>
      <point x="334" y="490" type="curve" smooth="yes"/>
      <point x="334" y="468"/>
      <point x="331" y="441"/>
      <point x="325" y="409" type="curve" smooth="yes"/>
      <point x="310" y="322" type="line" smooth="yes"/>
      <point x="298" y="256"/>
      <point x="292" y="198"/>
      <point x="292" y="148" type="curve" smooth="yes"/>
      <point x="292" y="-53"/>
      <point x="398" y="-128"/>
    </contour>
  </outline>
</glyph>
<glyph name="bar" format="1">
  <advance width="768"/>
  <unicode hex="007C"/>
  <outline>
    <contour>
      <point x="109" y="-126" type="line"/>
      <point x="353" y="-126" type="line"/>
      <point x="659" y="1608" type="line"/>
      <point x="415" y="1608" type="line"/>
    </contour>
  </outline>
</glyph>
<glyph name="braceright" format="1">
  <advance width="991"/>
  <unicode hex="007D"/>
  <outline>
    <contour>
      <point x="29" y="-128" type="line"/>
      <point x="404" y="-128"/>
      <point x="516" y="-11"/>
      <point x="575" y="322" type="curve"/>
      <point x="590" y="409" type="line" smooth="yes"/>
      <point x="619" y="572"/>
      <point x="668" y="595"/>
      <point x="814" y="595" type="curve"/>
      <point x="856" y="833" type="line"/>
      <point x="739" y="833"/>
      <point x="692" y="858"/>
      <point x="692" y="950" type="curve" smooth="yes"/>
      <point x="692" y="974"/>
      <point x="695" y="1002"/>
      <point x="701" y="1036" type="curve" smooth="yes"/>
      <point x="719" y="1139" type="line" smooth="yes"/>
      <point x="731" y="1209"/>
      <point x="738" y="1267"/>
      <point x="738" y="1316" type="curve" smooth="yes"/>
      <point x="738" y="1529"/>
      <point x="615" y="1556"/>
      <point x="325" y="1556" type="curve"/>
      <point x="295" y="1382" type="line"/>
      <point x="426" y="1382"/>
      <point x="463" y="1364"/>
      <point x="463" y="1297" type="curve" smooth="yes"/>
      <point x="463" y="1274"/>
      <point x="458" y="1245"/>
      <point x="452" y="1210" type="curve" smooth="yes"/>
      <point x="430" y="1080" type="line" smooth="yes"/>
      <point x="421" y="1029"/>
      <point x="416" y="982"/>
      <point x="416" y="939" type="curve" smooth="yes"/>
      <point x="416" y="827"/>
      <point x="449" y="748"/>
      <point x="526" y="722" type="curve"/>
      <point x="401" y="680"/>
      <point x="338" y="569"/>
      <point x="303" y="369" type="curve" smooth="yes"/>
      <point x="283" y="252" type="line"/>
      <point x="256" y="101"/>
      <point x="232" y="46"/>
      <point x="59" y="46" type="curve"/>
    </contour>
  </outline>
</glyph>
<glyph name="cent" format="1">
  <advance width="1107"/>
  <unicode hex="00A2"/>
  <outline>
    <contour>
      <point x="620" y="1006" type="line"/>
      <point x="713" y="1006" type="line"/>
      <point x="764" y="1291" type="line"/>
      <point x="671" y="1291" type="line"/>
    </contour>
    <contour>
      <point x="405" y="-214" type="line"/>
      <point x="498" y="-214" type="line"/>
      <point x="549" y="71" type="line"/>
      <point x="456" y="71" type="line"/>
    </contour>
    <component base="c"/>
  </outline>
</glyph>
<glyph name="yen" format="1">
  <advance width="1304"/>
  <unicode hex="00A5"/>
  <outline>
    <contour>
      <point x="984" y="533" type="line"/>
      <point x="1007" y="667" type="line"/>
      <point x="265" y="667" type="line"/>
      <point x="242" y="533" type="line"/>
    </contour>
    <contour>
      <point x="931" y="231" type="line"/>
      <point x="954" y="365" type="line"/>
      <point x="212" y="365" type="line"/>
      <point x="189" y="231" type="line"/>
    </contour>
    <component base="Y"/>
  </outline>
</glyph>
<glyph name="brokenbar" format="1">
  <advance width="769"/>
  <unicode hex="00A6"/>
  <outline>
    <contour>
      <point x="139" y="-120" type="line"/>
      <point x="348" y="-120" type="line"/>
      <point x="473" y="590" type="line"/>
      <point x="264" y="590" type="line"/>
    </contour>
    <contour>
      <point x="302" y="800" type="line"/>
      <point x="511" y="800" type="line"/>
      <point x="630" y="1476" type="line"/>
      <point x="421" y="1476" type="line"/>
    </contour>
  </outline>
</glyph>
<glyph name="section" format="1">
  <advance width="1085"/>
  <unicode hex="00A7"/>
  <outline>
    <contour>
      <point x="612" y="311" type="curve" smooth="yes"/>
      <point x="612" y="224"/>
      <point x="534" y="176"/>
      <point x="425" y="176" type="curve" smooth="yes"/>
      <point x="341" y="176"/>
      <point x="238" y="207"/>
      <point x="138" y="281" type="curve"/>
      <point x="14" y="112" type="line"/>
      <point x="98" y="32"/>
      <point x="240" y="-22"/>
      <point x="422" y="-22" type="curve" smooth="yes"/>
      <point x="679" y="-22"/>
      <point x="833" y="123"/>
      <point x="865" y="304" type="curve" smooth="yes"/>
      <point x="869" y="328"/>
      <point x="871" y="350"/>
      <point x="871" y="369" type="curve" smooth="yes"/>
      <point x="871" y="429"/>
      <point x="852" y="469"/>
      <point x="816" y="505" type="curve"/>
      <point x="895" y="568"/>
      <point x="946" y="642"/>
      <point x="959" y="716" type="curve" smooth="yes"/>
      <point x="961" y="728"/>
      <point x="962" y="741"/>
      <point x="962" y="753" type="curve" smooth="yes"/>
      <point x="962" y="838"/>
      <point x="910" y="920"/>
      <point x="791" y="981" type="curve" smooth="yes"/>
      <point x="552" y="1104" type="line" smooth="yes"/>
      <point x="511" y="1126"/>
      <point x="485" y="1145"/>
      <point x="485" y="1185" type="curve" smooth="yes"/>
      <point x="485" y="1269"/>
      <point x="559" y="1308"/>
      <point x="652" y="1308" type="curve" smooth="yes"/>
      <point x="733" y="1308"/>
      <point x="831" y="1279"/>
      <point x="925" y="1218" type="curve"/>
      <point x="1037" y="1377" type="line"/>
      <point x="976" y="1431"/>
      <point x="847" y="1497"/>
      <point x="663" y="1497" type="curve" smooth="yes"/>
      <point x="434" y="1497"/>
      <point x="267" y="1403"/>
      <point x="230" y="1192" type="curve" smooth="yes"/>
      <point x="227" y="1173"/>
      <point x="225" y="1156"/>
      <point x="225" y="1140" type="curve" smooth="yes"/>
      <point x="225" y="1080"/>
      <point x="247" y="1038"/>
      <point x="288" y="999" type="curve"/>
      <point x="212" y="949"/>
      <point x="157" y="872"/>
      <point x="143" y="792" type="curve" smooth="yes"/>
      <point x="140" y="778"/>
      <point x="139" y="765"/>
      <point x="139" y="751" type="curve" smooth="yes"/>
      <point x="139" y="672"/>
      <point x="183" y="594"/>
      <point x="291" y="537" type="curve" smooth="yes"/>
      <point x="529" y="411" type="line" smooth="yes"/>
      <point x="589" y="379"/>
      <point x="612" y="350"/>
    </contour>
    <contour>
      <point x="710" y="579" type="curve"/>
      <point x="402" y="733" type="line"/>
      <point x="353" y="756"/>
      <point x="335" y="783"/>
      <point x="335" y="822" type="curve" smooth="yes"/>
      <point x="335" y="872"/>
      <point x="371" y="925"/>
      <point x="396" y="941" type="curve"/>
      <point x="671" y="797" type="line"/>
      <point x="734" y="768"/>
      <point x="749" y="731"/>
      <point x="749" y="692" type="curve" smooth="yes"/>
      <point x="749" y="644"/>
      <point x="737" y="611"/>
    </contour>
  </outline>
</glyph>
<glyph name="ordfeminine" format="1">
  <advance width="1024"/>
  <unicode hex="00AA"/>
  <outline>
    <contour>
      <point x="97" y="785" type="curve" smooth="yes"/>
      <point x="93" y="762"/>
      <point x="91" y="740"/>
      <point x="91" y="719" type="curve" smooth="yes"/>
      <point x="91" y="594"/>
      <point x="165" y="518"/>
      <point x="299" y="518" type="curve"/>
      <point x="301" y="517" type="line"/>
      <point x="428" y="517"/>
      <point x="534" y="591"/>
      <point x="593" y="656" type="curve"/>
      <point x="611" y="582"/>
      <point x="635" y="531"/>
      <point x="755" y="531" type="curve" smooth="yes"/>
      <point x="840" y="531" type="line"/>
      <point x="888" y="701" type="line"/>
      <point x="835" y="701"/>
      <point x="815" y="716"/>
      <point x="815" y="760" type="curve" smooth="yes"/>
      <point x="815" y="774"/>
      <point x="817" y="792"/>
      <point x="821" y="812" type="curve" smooth="yes"/>
      <point x="884" y="1166" type="line" smooth="yes"/>
      <point x="889" y="1195"/>
      <point x="892" y="1223"/>
      <point x="892" y="1249" type="curve" smooth="yes"/>
      <point x="892" y="1391"/>
      <point x="810" y="1478"/>
      <point x="591" y="1478" type="curve" smooth="yes"/>
      <point x="354" y="1478"/>
      <point x="225" y="1363"/>
      <point x="194" y="1185" type="curve"/>
      <point x="189" y="1158" type="line"/>
      <point x="394" y="1158" type="line"/>
      <point x="401" y="1194" type="line"/>
      <point x="413" y="1265"/>
      <point x="447" y="1316"/>
      <point x="557" y="1316" type="curve" smooth="yes"/>
      <point x="640" y="1316"/>
      <point x="673" y="1289"/>
      <point x="673" y="1235" type="curve" smooth="yes"/>
      <point x="673" y="1225"/>
      <point x="672" y="1215"/>
      <point x="670" y="1204" type="curve" smooth="yes"/>
      <point x="649" y="1088"/>
      <point x="581" y="1087"/>
      <point x="416" y="1037" type="curve" smooth="yes"/>
      <point x="170" y="963"/>
      <point x="117" y="903"/>
    </contour>
    <contour>
      <point x="403" y="684" type="line" smooth="yes"/>
      <point x="340" y="684"/>
      <point x="306" y="715"/>
      <point x="306" y="771" type="curve" smooth="yes"/>
      <point x="306" y="780"/>
      <point x="307" y="790"/>
      <point x="309" y="801" type="curve" smooth="yes"/>
      <point x="318" y="851"/>
      <point x="355" y="897"/>
      <point x="450" y="924" type="curve" smooth="yes"/>
      <point x="527" y="946"/>
      <point x="602" y="976"/>
      <point x="634" y="1002" type="curve"/>
      <point x="593" y="770" type="line"/>
      <point x="542" y="706"/>
      <point x="457" y="684"/>
      <point x="404" y="684" type="curve" smooth="yes"/>
    </contour>
  </outline>
</glyph>
<glyph name="periodcentered" format="1">
  <advance width="512"/>
  <unicode hex="00B7"/>
  <outline>
    <contour>
      <point x="242" y="780" type="line"/>
      <point x="490" y="780" type="line"/>
      <point x="534" y="1025" type="line"/>
      <point x="286" y="1025" type="line"/>
    </contour>
    <contour>
      <point x="1" y="902" type="move" name="_mid"/>
    </contour>
  </outline>
</glyph>
<glyph name="cedilla" format="1">
  <advance width="512"/>
  <unicode hex="00B8"/>
  <outline>
    <contour>
      <point x="296" y="-263" type="curve" smooth="yes"/>
      <point x="296" y="-327"/>
      <point x="244" y="-365"/>
      <point x="162" y="-365" type="curve" smooth="yes"/>
      <point x="143" y="-365"/>
      <point x="122" y="-363"/>
      <point x="99" y="-358" type="curve"/>
      <point x="78" y="-475" type="line"/>
      <point x="112" y="-482"/>
      <point x="142" y="-484"/>
      <point x="171" y="-484" type="curve" smooth="yes"/>
      <point x="335" y="-484"/>
      <point x="432" y="-395"/>
      <point x="449" y="-301" type="curve" smooth="yes"/>
      <point x="452" y="-286"/>
      <point x="453" y="-271"/>
      <point x="453" y="-257" type="curve" smooth="yes"/>
      <point x="453" y="-182"/>
      <point x="414" y="-113"/>
      <point x="295" y="-91" type="curve"/>
      <point x="307" y="10" type="line"/>
      <point x="201" y="10" type="line"/>
      <point x="170" y="-162" type="line"/>
      <point x="258" y="-165"/>
      <point x="296" y="-214"/>
    </contour>
    <contour>
      <point x="237" y="0" type="move" name="_bot"/>
    </contour>
  </outline>
</glyph>
<glyph name="onesuperior" format="1">
  <advance width="1127"/>
  <unicode hex="00B9"/>
  <outline>
    <contour>
      <point x="131" y="624" type="line"/>
      <point x="859" y="624" type="line"/>
      <point x="883" y="761" type="line"/>
      <point x="634" y="761" type="line"/>
      <point x="774" y="1556" type="line"/>
      <point x="639" y="1556" type="line"/>
      <point x="284" y="1509" type="line"/>
      <point x="276" y="1366" type="line"/>
      <point x="552" y="1401" type="line"/>
      <point x="439" y="761" type="line"/>
      <point x="155" y="761" type="line"/>
    </contour>
  </outline>
</glyph>
<glyph name="guillemotright" format="1">
  <advance width="1024"/>
  <unicode hex="00BB"/>
  <outline>
    <contour>
      <point x="220" y="80" type="line"/>
      <point x="572" y="530" type="line"/>
      <point x="371" y="980" type="line"/>
      <point x="221" y="910" type="line"/>
      <point x="359" y="530" type="line"/>
      <point x="87" y="150" type="line"/>
    </contour>
    <contour>
      <point x="634" y="80" type="line"/>
      <point x="986" y="530" type="line"/>
      <point x="785" y="980" type="line"/>
      <point x="633" y="910" type="line"/>
      <point x="773" y="530" type="line"/>
      <point x="499" y="150" type="line"/>
    </contour>
  </outline>
</glyph>
<glyph name="onehalf" format="1">
  <advance width="2579"/>
  <unicode hex="00BD"/>
  <outline>
    <contour>
      <point x="1590" y="-2" type="line"/>
      <point x="2237" y="-2" type="line"/>
      <point x="2266" y="160" type="line"/>
      <point x="1829" y="160" type="line"/>
      <point x="2102" y="386" type="line" smooth="yes"/>
      <point x="2240" y="501"/>
      <point x="2356" y="612"/>
      <point x="2384" y="767" type="curve" smooth="yes"/>
      <point x="2388" y="793"/>
      <point x="2391" y="818"/>
      <point x="2391" y="841" type="curve" smooth="yes"/>
      <point x="2391" y="976"/>
      <point x="2311" y="1071"/>
      <point x="2081" y="1071" type="curve" smooth="yes"/>
      <point x="1796" y="1071"/>
      <point x="1688" y="958"/>
      <point x="1644" y="706" type="curve"/>
      <point x="1862" y="706" type="line"/>
      <point x="1889" y="860"/>
      <point x="1920" y="911"/>
      <point x="2055" y="911" type="curve" smooth="yes"/>
      <point x="2140" y="911"/>
      <point x="2175" y="879"/>
      <point x="2175" y="815" type="curve" smooth="yes"/>
      <point x="2175" y="801"/>
      <point x="2173" y="786"/>
      <point x="2170" y="769" type="curve" smooth="yes"/>
      <point x="2154" y="675"/>
      <point x="2097" y="608"/>
      <point x="1992" y="518" type="curve" smooth="yes"/>
      <point x="1574" y="159" type="line"/>
    </contour>
    <contour>
      <point x="73" y="422" type="line"/>
      <point x="798" y="422" type="line"/>
      <point x="824" y="569" type="line"/>
      <point x="578" y="569" type="line"/>
      <point x="738" y="1477" type="line"/>
      <point x="592" y="1477" type="line"/>
      <point x="247" y="1424" type="line"/>
      <point x="239" y="1279" type="line"/>
      <point x="498" y="1318" type="line"/>
      <point x="366" y="569" type="line"/>
      <point x="98" y="569" type="line"/>
    </contour>
    <contour>
      <point x="746" y="0" type="line"/>
      <point x="920" y="0" type="line"/>
      <point x="1827" y="1505" type="line"/>
      <point x="1653" y="1505" type="line"/>
    </contour>
  </outline>
</glyph>
<glyph name="threequarters" format="1">
  <advance width="2882"/>
  <unicode hex="00BE"/>
  <outline>
    <contour>
      <point x="505" y="1156" type="line"/>
      <point x="530" y="1308"/>
      <point x="571" y="1344"/>
      <point x="715" y="1344" type="curve" smooth="yes"/>
      <point x="819" y="1344"/>
      <point x="857" y="1311"/>
      <point x="857" y="1248" type="curve" smooth="yes"/>
      <point x="857" y="1236"/>
      <point x="856" y="1223"/>
      <point x="853" y="1209" type="curve" smooth="yes"/>
      <point x="835" y="1106"/>
      <point x="821" y="1059"/>
      <point x="616" y="1059" type="curve"/>
      <point x="591" y="917" type="line"/>
      <point x="741" y="917"/>
      <point x="785" y="888"/>
      <point x="785" y="812" type="curve" smooth="yes"/>
      <point x="785" y="795"/>
      <point x="783" y="775"/>
      <point x="779" y="753" type="curve" smooth="yes"/>
      <point x="761" y="651"/>
      <point x="726" y="591"/>
      <point x="598" y="591" type="curve" smooth="yes"/>
      <point x="484" y="591"/>
      <point x="427" y="606"/>
      <point x="427" y="704" type="curve" smooth="yes"/>
      <point x="427" y="724"/>
      <point x="430" y="746"/>
      <point x="434" y="773" type="curve"/>
      <point x="249" y="773" type="line"/>
      <point x="243" y="736"/>
      <point x="240" y="703"/>
      <point x="240" y="673" type="curve" smooth="yes"/>
      <point x="240" y="509"/>
      <point x="330" y="437"/>
      <point x="557" y="437" type="curve" smooth="yes"/>
      <point x="833" y="437"/>
      <point x="937" y="582"/>
      <point x="966" y="744" type="curve" smooth="yes"/>
      <point x="970" y="770"/>
      <point x="973" y="795"/>
      <point x="973" y="818" type="curve" smooth="yes"/>
      <point x="973" y="901"/>
      <point x="940" y="963"/>
      <point x="845" y="990" type="curve"/>
      <point x="985" y="1018"/>
      <point x="1023" y="1120"/>
      <point x="1040" y="1219" type="curve" smooth="yes"/>
      <point x="1044" y="1240"/>
      <point x="1046" y="1260"/>
      <point x="1046" y="1279" type="curve" smooth="yes"/>
      <point x="1046" y="1416"/>
      <point x="948" y="1496"/>
      <point x="750" y="1496" type="curve"/>
      <point x="521" y="1496"/>
      <point x="368" y="1423"/>
      <point x="320" y="1156" type="curve"/>
    </contour>
    <contour>
      <point x="1885" y="0" type="line"/>
      <point x="2044" y="0" type="line"/>
      <point x="2081" y="210" type="line"/>
      <point x="2249" y="210" type="line"/>
      <point x="2278" y="373" type="line"/>
      <point x="2110" y="373" type="line"/>
      <point x="2153" y="615" type="line"/>
      <point x="1994" y="615" type="line"/>
      <point x="1951" y="373" type="line"/>
      <point x="1652" y="373" type="line"/>
      <point x="2045" y="1074" type="line"/>
      <point x="1854" y="1074" type="line"/>
      <point x="1449" y="369" type="line"/>
      <point x="1421" y="210" type="line"/>
      <point x="1922" y="210" type="line"/>
    </contour>
    <contour>
      <point x="756" y="0" type="line"/>
      <point x="930" y="0" type="line"/>
      <point x="1837" y="1505" type="line"/>
      <point x="1663" y="1505" type="line"/>
    </contour>
  </outline>
</glyph>
<glyph name="ae" format="1">
  <advance width="1734"/>
  <unicode hex="00E6"/>
  <outline>
    <contour>
      <point x="69" y="293" type="curve" smooth="yes"/>
      <point x="64" y="266"/>
      <point x="62" y="241"/>
      <point x="62" y="217" type="curve" smooth="yes"/>
      <point x="62" y="67"/>
      <point x="153" y="-23"/>
      <point x="321" y="-23" type="curve" smooth="yes"/>
      <point x="522" y="-23"/>
      <point x="645" y="31"/>
      <point x="775" y="130" type="curve"/>
      <point x="811" y="29"/>
      <point x="918" y="-23"/>
      <point x="1087" y="-23" type="curve" smooth="yes"/>
      <point x="1377" y="-23"/>
      <point x="1529" y="41"/>
      <point x="1590" y="353" type="curve"/>
      <point x="1338" y="353" type="line"/>
      <point x="1304" y="184"/>
      <point x="1248" y="166"/>
      <point x="1125" y="166" type="curve" smooth="yes"/>
      <point x="1027" y="166"/>
      <point x="970" y="194"/>
      <point x="970" y="278" type="curve" smooth="yes"/>
      <point x="970" y="291"/>
      <point x="971" y="305"/>
      <point x="974" y="321" type="curve" smooth="yes"/>
      <point x="1008" y="514" type="line"/>
      <point x="1620" y="514" type="line"/>
      <point x="1661" y="745" type="line" smooth="yes"/>
      <point x="1666" y="776"/>
      <point x="1669" y="805"/>
      <point x="1669" y="832" type="curve" smooth="yes"/>
      <point x="1669" y="997"/>
      <point x="1565" y="1097"/>
      <point x="1286" y="1097" type="curve" smooth="yes"/>
      <point x="1155" y="1097"/>
      <point x="1041" y="1055"/>
      <point x="954" y="967" type="curve"/>
      <point x="923" y="1056"/>
      <point x="806" y="1097"/>
      <point x="672" y="1097" type="curve" smooth="yes"/>
      <point x="377" y="1097"/>
      <point x="217" y="953"/>
      <point x="181" y="745" type="curve"/>
      <point x="176" y="719" type="line"/>
      <point x="432" y="719" type="line"/>
      <point x="438" y="755" type="line"/>
      <point x="453" y="838"/>
      <point x="495" y="908"/>
      <point x="632" y="908" type="curve" smooth="yes"/>
      <point x="742" y="908"/>
      <point x="783" y="867"/>
      <point x="783" y="803" type="curve" smooth="yes"/>
      <point x="783" y="793"/>
      <point x="782" y="782"/>
      <point x="780" y="770" type="curve" smooth="yes"/>
      <point x="756" y="631"/>
      <point x="675" y="640"/>
      <point x="457" y="586" type="curve" smooth="yes"/>
      <point x="154" y="512"/>
      <point x="93" y="430"/>
    </contour>
    <contour>
      <point x="448" y="157" type="curve" smooth="yes"/>
      <point x="369" y="157"/>
      <point x="327" y="196"/>
      <point x="327" y="262" type="curve" smooth="yes"/>
      <point x="327" y="272"/>
      <point x="328" y="283"/>
      <point x="330" y="294" type="curve" smooth="yes"/>
      <point x="341" y="354"/>
      <point x="378" y="419"/>
      <point x="511" y="447" type="curve" smooth="yes"/>
      <point x="614" y="470"/>
      <point x="707" y="499"/>
      <point x="736" y="520" type="curve"/>
      <point x="690" y="259" type="line"/>
      <point x="627" y="183"/>
      <point x="514" y="157"/>
    </contour>
    <contour>
      <point x="1033" y="655" type="line"/>
      <point x="1051" y="760" type="line" smooth="yes"/>
      <point x="1071" y="874"/>
      <point x="1149" y="907"/>
      <point x="1258" y="907" type="curve" smooth="yes"/>
      <point x="1353" y="907"/>
      <point x="1415" y="890"/>
      <point x="1415" y="806" type="curve" smooth="yes"/>
      <point x="1415" y="794"/>
      <point x="1414" y="780"/>
      <point x="1411" y="765" type="curve" smooth="yes"/>
      <point x="1392" y="655" type="line"/>
    </contour>
    <contour>
      <point x="985" y="1074" type="move" name="top"/>
    </contour>
  </outline>
</glyph>
<glyph name="eth" format="1">
  <advance width="1312"/>
  <unicode hex="00F0"/>
  <outline>
    <contour>
      <point x="529" y="-23" type="curve" smooth="yes"/>
      <point x="912" y="-23"/>
      <point x="1071" y="195"/>
      <point x="1117" y="460" type="curve"/>
      <point x="1131" y="536" type="line" smooth="yes"/>
      <point x="1151" y="648"/>
      <point x="1160" y="747"/>
      <point x="1160" y="835" type="curve" smooth="yes"/>
      <point x="1160" y="1220"/>
      <point x="988" y="1389"/>
      <point x="795" y="1448" type="curve"/>
      <point x="896" y="1598" type="line"/>
      <point x="786" y="1655" type="line"/>
      <point x="671" y="1485" type="line"/>
      <point x="600" y="1501"/>
      <point x="529" y="1505"/>
      <point x="468" y="1505" type="curve" smooth="yes"/>
      <point x="435" y="1505"/>
      <point x="404" y="1504"/>
      <point x="378" y="1502" type="curve"/>
      <point x="325" y="1335" type="line"/>
      <point x="393" y="1334"/>
      <point x="477" y="1333"/>
      <point x="560" y="1318" type="curve"/>
      <point x="456" y="1167" type="line"/>
      <point x="565" y="1110" type="line"/>
      <point x="685" y="1284" type="line"/>
      <point x="790" y="1252"/>
      <point x="884" y="1153"/>
      <point x="884" y="963" type="curve" smooth="yes"/>
      <point x="884" y="949"/>
      <point x="884" y="935"/>
      <point x="883" y="921" type="curve"/>
      <point x="860" y="944"/>
      <point x="715" y="975"/>
      <point x="649" y="975" type="curve" smooth="yes"/>
      <point x="386" y="975"/>
      <point x="171" y="846"/>
      <point x="131" y="618" type="curve" smooth="yes"/>
      <point x="82" y="342" type="line" smooth="yes"/>
      <point x="78" y="317"/>
      <point x="76" y="294"/>
      <point x="76" y="271" type="curve" smooth="yes"/>
      <point x="76" y="89"/>
      <point x="217" y="-23"/>
    </contour>
    <contour>
      <point x="565" y="178" type="curve" smooth="yes"/>
      <point x="419" y="178"/>
      <point x="355" y="211"/>
      <point x="355" y="295" type="curve" smooth="yes"/>
      <point x="355" y="307"/>
      <point x="357" y="319"/>
      <point x="359" y="333" type="curve" smooth="yes"/>
      <point x="408" y="612" type="line" smooth="yes"/>
      <point x="431" y="743"/>
      <point x="527" y="793"/>
      <point x="673" y="793" type="curve" smooth="yes"/>
      <point x="733" y="793"/>
      <point x="835" y="766"/>
      <point x="873" y="736" type="curve"/>
      <point x="873" y="654"/>
      <point x="854" y="497"/>
      <point x="842" y="428" type="curve" smooth="yes"/>
      <point x="812" y="258"/>
      <point x="778" y="178"/>
    </contour>
  </outline>
</glyph>
<glyph name="divide" format="1">
  <advance width="1004"/>
  <unicode hex="00F7"/>
  <outline>
    <contour>
      <point x="307" y="94" type="line"/>
      <point x="535" y="94" type="line"/>
      <point x="576" y="323" type="line"/>
      <point x="348" y="323" type="line"/>
    </contour>
    <contour>
      <point x="98" y="479" type="line"/>
      <point x="878" y="479" type="line"/>
      <point x="907" y="642" type="line"/>
      <point x="127" y="642" type="line"/>
    </contour>
    <contour>
      <point x="430" y="792" type="line"/>
      <point x="658" y="792" type="line"/>
      <point x="699" y="1021" type="line"/>
      <point x="471" y="1021" type="line"/>
    </contour>
  </outline>
</glyph>
<glyph name="Hbar" format="1">
  <advance width="1624"/>
  <unicode hex="0126"/>
  <outline>
    <contour>
      <point x="153" y="1132" type="line"/>
      <point x="1609" y="1132" type="line"/>
      <point x="1628" y="1236" type="line"/>
      <point x="172" y="1236" type="line"/>
    </contour>
    <component base="H"/>
  </outline>
</glyph>
<glyph name="hbar" format="1">
  <advance width="1254"/>
  <unicode hex="0127"/>
  <outline>
    <contour>
      <point x="87" y="1221" type="line"/>
      <point x="817" y="1221" type="line"/>
      <point x="842" y="1364" type="line"/>
      <point x="112" y="1364" type="line"/>
    </contour>
    <component base="h"/>
  </outline>
</glyph>
<glyph name="dotlessi" format="1">
  <advance width="570"/>
  <unicode hex="0131"/>
  <outline>
    <contour>
      <point x="75" y="0" type="line"/>
      <point x="326" y="0" type="line"/>
      <point x="516" y="1074" type="line"/>
      <point x="265" y="1074" type="line"/>
    </contour>
    <contour>
      <point x="214" y="0" type="move" name="ogonek"/>
    </contour>
    <contour>
      <point x="398" y="1074" type="move" name="top"/>
    </contour>
  </outline>
</glyph>
<glyph name="kgreenlandic" format="1">
  <advance width="1213"/>
  <unicode hex="0138"/>
  <outline>
    <contour>
      <point x="76" y="0" type="line"/>
      <point x="349" y="0" type="line"/>
      <point x="417" y="385" type="line"/>
      <point x="530" y="483" type="line"/>
      <point x="769" y="0" type="line"/>
      <point x="1095" y="0" type="line"/>
      <point x="783" y="605" type="line"/>
      <point x="1264" y="1074" type="line"/>
      <point x="940" y="1074" type="line"/>
      <point x="878" y="1018"/>
      <point x="517" y="657"/>
      <point x="455" y="602" type="curve"/>
      <point x="539" y="1074" type="line"/>
      <point x="266" y="1074" type="line"/>
    </contour>
  </outline>
</glyph>
<glyph name="Lslash" format="1">
  <advance width="1172"/>
  <unicode hex="0141"/>
  <outline>
    <contour>
      <point x="-7" y="560" type="line"/>
      <point x="816" y="871" type="line"/>
      <point x="856" y="1094" type="line"/>
      <point x="32" y="783" type="line"/>
    </contour>
    <component base="L"/>
  </outline>
</glyph>
<glyph name="Eng" format="1">
  <advance width="1640"/>
  <unicode hex="014A"/>
  <outline>
    <contour>
      <point x="737" y="-382" type="line"/>
      <point x="1179" y="-382"/>
      <point x="1315" y="-219"/>
      <point x="1382" y="162" type="curve" smooth="yes"/>
      <point x="1614" y="1477" type="line"/>
      <point x="1347" y="1477" type="line"/>
      <point x="1185" y="560" type="line"/>
      <point x="579" y="1477" type="line"/>
      <point x="354" y="1477" type="line"/>
      <point x="93" y="0" type="line"/>
      <point x="361" y="0" type="line"/>
      <point x="537" y="996" type="line"/>
      <point x="1107" y="153" type="line"/>
      <point x="1101" y="117" type="line"/>
      <point x="1052" y="-159"/>
      <point x="979" y="-171"/>
      <point x="743" y="-192" type="curve"/>
    </contour>
  </outline>
</glyph>
<glyph name="OE" format="1">
  <advance width="1633"/>
  <unicode hex="0152"/>
  <outline>
    <contour>
      <point x="587" y="0" type="curve" smooth="yes"/>
      <point x="1377" y="0" type="line"/>
      <point x="1410" y="190" type="line"/>
      <point x="1059" y="190" type="line"/>
      <point x="1143" y="665" type="line"/>
      <point x="1409" y="665" type="line"/>
      <point x="1443" y="858" type="line"/>
      <point x="1177" y="858" type="line"/>
      <point x="1253" y="1287" type="line"/>
      <point x="1602" y="1287" type="line"/>
      <point x="1635" y="1476" type="line"/>
      <point x="847" y="1476" type="line"/>
      <point x="394" y="1475"/>
      <point x="250" y="1247"/>
      <point x="199" y="958" type="curve" smooth="yes"/>
      <point x="119" y="506" type="line" smooth="yes"/>
      <point x="110" y="453"/>
      <point x="104" y="403"/>
      <point x="104" y="356" type="curve" smooth="yes"/>
      <point x="104" y="142"/>
      <point x="217" y="0"/>
    </contour>
    <contour>
      <point x="618" y="191" type="line" smooth="yes"/>
      <point x="433" y="191"/>
      <point x="372" y="270"/>
      <point x="372" y="379" type="curve" smooth="yes"/>
      <point x="372" y="400"/>
      <point x="374" y="421"/>
      <point x="378" y="444" type="curve" smooth="yes"/>
      <point x="480" y="1022" type="line" smooth="yes"/>
      <point x="505" y="1165"/>
      <point x="590" y="1279"/>
      <point x="808" y="1279" type="curve" smooth="yes"/>
      <point x="981" y="1279" type="line"/>
      <point x="790" y="191" type="line"/>
    </contour>
  </outline>
</glyph>
<glyph name="florin" format="1">
  <advance width="1024"/>
  <unicode hex="0192"/>
  <outline>
    <contour>
      <point x="216" y="-205" type="curve" smooth="yes"/>
      <point x="444" y="-205"/>
      <point x="489" y="-67"/>
      <point x="519" y="101" type="curve" smooth="yes"/>
      <point x="650" y="843" type="line"/>
      <point x="822" y="843" type="line"/>
      <point x="843" y="962" type="line"/>
      <point x="671" y="962" type="line"/>
      <point x="714" y="1207" type="line" smooth="yes"/>
      <point x="727" y="1281"/>
      <point x="751" y="1347"/>
      <point x="849" y="1347" type="curve" smooth="yes"/>
      <point x="863" y="1347"/>
      <point x="885" y="1342"/>
      <point x="906" y="1341" type="curve"/>
      <point x="932" y="1488" type="line"/>
      <point x="880" y="1494"/>
      <point x="848" y="1496"/>
      <point x="811" y="1496" type="curve" smooth="yes"/>
      <point x="580" y="1496"/>
      <point x="536" y="1358"/>
      <point x="504" y="1181" type="curve"/>
      <point x="466" y="962" type="line"/>
      <point x="319" y="962" type="line"/>
      <point x="298" y="843" type="line"/>
      <point x="445" y="843" type="line"/>
      <point x="309" y="74" type="line" smooth="yes"/>
      <point x="296" y="1"/>
      <point x="272" y="-56"/>
      <point x="182" y="-56" type="curve" smooth="yes"/>
      <point x="167" y="-56"/>
      <point x="142" y="-53"/>
      <point x="119" y="-49" type="curve"/>
      <point x="93" y="-196" type="line"/>
      <point x="145" y="-203"/>
      <point x="178" y="-205"/>
    </contour>
  </outline>
</glyph>
<glyph name="dotlessj" format="1">
  <advance width="673"/>
  <unicode hex="0237"/>
  <outline>
    <contour>
      <point x="-108" y="-329" type="line"/>
      <point x="1" y="-329" type="line" smooth="yes"/>
      <point x="268" y="-329"/>
      <point x="401" y="-183"/>
      <point x="439" y="30" type="curve" smooth="yes"/>
      <point x="623" y="1074" type="line"/>
      <point x="350" y="1074" type="line"/>
      <point x="168" y="43" type="line" smooth="yes"/>
      <point x="153" y="-39"/>
      <point x="106" y="-135"/>
      <point x="-34" y="-135" type="curve" smooth="yes"/>
      <point x="-79" y="-135" type="line"/>
    </contour>
    <contour>
      <point x="493" y="1074" type="move" name="top"/>
    </contour>
  </outline>
</glyph>
<glyph name="caron" format="1">
  <advance width="512"/>
  <unicode hex="02C7"/>
  <outline>
    <contour>
      <point x="354" y="1216" type="line"/>
      <point x="616" y="1514" type="line"/>
      <point x="391" y="1514" type="line"/>
      <point x="268" y="1371" type="line"/>
      <point x="187" y="1514" type="line"/>
      <point x="-43" y="1514" type="line"/>
      <point x="129" y="1216" type="line"/>
    </contour>
    <contour>
      <point x="216" y="1074" type="move" name="_top"/>
    </contour>
  </outline>
</glyph>
<glyph name="breve" format="1">
  <advance width="512"/>
  <unicode hex="02D8"/>
  <outline>
    <contour>
      <point x="233" y="1217" type="curve" smooth="yes"/>
      <point x="361" y="1217"/>
      <point x="500" y="1276"/>
      <point x="535" y="1476" type="curve"/>
      <point x="391" y="1476" type="line"/>
      <point x="377" y="1400"/>
      <point x="317" y="1376"/>
      <point x="261" y="1376" type="curve" smooth="yes"/>
      <point x="211" y="1376"/>
      <point x="165" y="1395"/>
      <point x="165" y="1452" type="curve" smooth="yes"/>
      <point x="165" y="1459"/>
      <point x="165" y="1467"/>
      <point x="167" y="1476" type="curve"/>
      <point x="23" y="1476" type="line"/>
      <point x="19" y="1452"/>
      <point x="17" y="1429"/>
      <point x="17" y="1409" type="curve" smooth="yes"/>
      <point x="17" y="1263"/>
      <point x="121" y="1217"/>
    </contour>
    <contour>
      <point x="219" y="1074" type="move" name="_top"/>
    </contour>
  </outline>
</glyph>
<glyph name="dotaccent" format="1">
  <advance width="489"/>
  <unicode hex="02D9"/>
  <outline>
    <contour>
      <point x="95" y="1251" type="line"/>
      <point x="363" y="1251" type="line"/>
      <point x="407" y="1505" type="line"/>
      <point x="139" y="1505" type="line"/>
    </contour>
    <contour>
      <point x="203" y="1074" type="move" name="_top"/>
    </contour>
  </outline>
</glyph>
<glyph name="ogonek" format="1">
  <advance width="487"/>
  <unicode hex="02DB"/>
  <outline>
    <contour>
      <point x="363" y="-508" type="line"/>
      <point x="401" y="-367" type="line"/>
      <point x="321" y="-367"/>
      <point x="244" y="-353"/>
      <point x="244" y="-273" type="curve" smooth="yes"/>
      <point x="244" y="-264"/>
      <point x="245" y="-255"/>
      <point x="247" y="-245" type="curve" smooth="yes"/>
      <point x="262" y="-156"/>
      <point x="320" y="-70"/>
      <point x="375" y="9" type="curve"/>
      <point x="260" y="9" type="line"/>
      <point x="155" y="-76"/>
      <point x="71" y="-194"/>
      <point x="53" y="-294" type="curve" smooth="yes"/>
      <point x="50" y="-309"/>
      <point x="49" y="-323"/>
      <point x="49" y="-336" type="curve" smooth="yes"/>
      <point x="49" y="-480"/>
      <point x="204" y="-508"/>
      <point x="349" y="-508" type="curve" smooth="yes"/>
    </contour>
    <contour>
      <point x="309" y="0" type="move" name="_ogonek"/>
    </contour>
  </outline>
</glyph>
<glyph name="hungarumlaut" format="1">
  <advance width="1024"/>
  <unicode hex="02DD"/>
  <outline>
    <contour>
      <point x="74" y="1157" type="line"/>
      <point x="223" y="1157" type="line"/>
      <point x="520" y="1522" type="line"/>
      <point x="252" y="1522" type="line"/>
    </contour>
    <contour>
      <point x="484" y="1157" type="line"/>
      <point x="633" y="1157" type="line"/>
      <point x="930" y="1522" type="line"/>
      <point x="662" y="1522" type="line"/>
    </contour>
    <contour>
      <point x="319" y="1074" type="move" name="_top"/>
    </contour>
  </outline>
</glyph>
<glyph name="uni0311" format="1">
  <advance width="575"/>
  <unicode hex="0311"/>
  <outline>
    <contour>
      <point x="11" y="1217" type="curve"/>
      <point x="155" y="1217" type="line"/>
      <point x="169" y="1293"/>
      <point x="229" y="1317"/>
      <point x="285" y="1317" type="curve" smooth="yes"/>
      <point x="335" y="1317"/>
      <point x="381" y="1298"/>
      <point x="381" y="1241" type="curve" smooth="yes"/>
      <point x="381" y="1234"/>
      <point x="381" y="1226"/>
      <point x="379" y="1217" type="curve"/>
      <point x="523" y="1217" type="line"/>
      <point x="527" y="1241"/>
      <point x="529" y="1264"/>
      <point x="529" y="1284" type="curve" smooth="yes"/>
      <point x="529" y="1430"/>
      <point x="425" y="1476"/>
      <point x="313" y="1476" type="curve" smooth="yes"/>
      <point x="185" y="1476"/>
      <point x="46" y="1417"/>
    </contour>
    <contour>
      <point x="253" y="1074" type="move" name="_top"/>
    </contour>
  </outline>
</glyph>
<glyph name="Sigma" format="1">
  <advance width="1196"/>
  <unicode hex="03A3"/>
  <outline>
    <contour>
      <point x="960" y="0" type="line"/>
      <point x="1000" y="226" type="line"/>
      <point x="356" y="226" type="line"/>
      <point x="872" y="734" type="line"/>
      <point x="886" y="812" type="line"/>
      <point x="540" y="1252" type="line"/>
      <point x="1181" y="1252" type="line"/>
      <point x="1220" y="1476" type="line"/>
      <point x="222" y="1476" type="line"/>
      <point x="190" y="1291" type="line"/>
      <point x="577" y="761" type="line"/>
      <point x="-4" y="191" type="line"/>
      <point x="-38" y="0" type="line"/>
    </contour>
  </outline>
</glyph>
<glyph name="mu" format="1">
  <advance width="1246"/>
  <unicode hex="03BC"/>
  <outline>
    <contour>
      <point x="930" y="1074" type="line"/>
      <point x="797" y="317" type="line" smooth="yes"/>
      <point x="779" y="217"/>
      <point x="656" y="166"/>
      <point x="557" y="166" type="curve" smooth="yes"/>
      <point x="481" y="166"/>
      <point x="397" y="191"/>
      <point x="397" y="280" type="curve" smooth="yes"/>
      <point x="397" y="289"/>
      <point x="398" y="298"/>
      <point x="400" y="308" type="curve" smooth="yes"/>
      <point x="535" y="1074" type="line"/>
      <point x="263" y="1074" type="line"/>
      <point x="33" y="-236" type="line"/>
      <point x="285" y="-236" type="line"/>
      <point x="326" y="2" type="line"/>
      <point x="380" y="-12"/>
      <point x="430" y="-19"/>
      <point x="475" y="-19" type="curve" smooth="yes"/>
      <point x="611" y="-19"/>
      <point x="710" y="41"/>
      <point x="765" y="135" type="curve"/>
      <point x="747" y="0" type="line"/>
      <point x="1014" y="0" type="line"/>
      <point x="1203" y="1074" type="line"/>
    </contour>
  </outline>
</glyph>
<glyph name="pi" format="1">
  <advance width="1257"/>
  <unicode hex="03C0"/>
  <outline>
    <contour>
      <point x="84" y="801" type="line"/>
      <point x="151" y="845"/>
      <point x="193" y="881"/>
      <point x="302" y="891" type="curve"/>
      <point x="145" y="0" type="line"/>
      <point x="397" y="0" type="line"/>
      <point x="555" y="893" type="line"/>
      <point x="820" y="893" type="line"/>
      <point x="714" y="297" type="line" smooth="yes"/>
      <point x="707" y="258"/>
      <point x="704" y="223"/>
      <point x="704" y="192" type="curve" smooth="yes"/>
      <point x="704" y="22"/>
      <point x="808" y="-20"/>
      <point x="997" y="-20" type="curve" smooth="yes"/>
      <point x="1014" y="-20" type="line"/>
      <point x="1090" y="156" type="line"/>
      <point x="998" y="175"/>
      <point x="964" y="181"/>
      <point x="964" y="248" type="curve" smooth="yes"/>
      <point x="964" y="271"/>
      <point x="968" y="302"/>
      <point x="975" y="343" type="curve" smooth="yes"/>
      <point x="1072" y="893" type="line"/>
      <point x="1254" y="893" type="line"/>
      <point x="1285" y="1074" type="line"/>
      <point x="333" y="1074" type="line" smooth="yes"/>
      <point x="230" y="1074"/>
      <point x="164" y="1032"/>
      <point x="117" y="986" type="curve"/>
    </contour>
  </outline>
</glyph>
<glyph name="emdash" format="1">
  <advance width="961"/>
  <unicode hex="2014"/>
  <outline>
    <contour>
      <point x="-12" y="383" type="line"/>
      <point x="942" y="383" type="line"/>
      <point x="972" y="556" type="line"/>
      <point x="18" y="556" type="line"/>
    </contour>
  </outline>
</glyph>
<glyph name="quoteleft" format="1">
  <advance width="874"/>
  <unicode hex="2018"/>
  <outline>
    <contour>
      <point x="551" y="1503" type="line"/>
      <point x="479" y="1447"/>
      <point x="312" y="1262"/>
      <point x="277" y="1061" type="curve"/>
      <point x="237" y="838" type="line"/>
      <point x="559" y="838" type="line"/>
      <point x="608" y="1114" type="line"/>
      <point x="443" y="1114" type="line"/>
      <point x="467" y="1252"/>
      <point x="588" y="1399"/>
      <point x="650" y="1457" type="curve"/>
    </contour>
  </outline>
</glyph>
<glyph name="quotesinglbase" format="1">
  <advance width="874"/>
  <unicode hex="201A"/>
  <outline>
    <contour>
      <point x="363" y="-389" type="line"/>
      <point x="435" y="-333"/>
      <point x="602" y="-148"/>
      <point x="637" y="53" type="curve"/>
      <point x="677" y="276" type="line"/>
      <point x="355" y="276" type="line"/>
      <point x="306" y="0" type="line"/>
      <point x="471" y="0" type="line"/>
      <point x="447" y="-138"/>
      <point x="326" y="-285"/>
      <point x="264" y="-343" type="curve"/>
    </contour>
  </outline>
</glyph>
<glyph name="quotedblleft" format="1">
  <advance width="1310"/>
  <unicode hex="201C"/>
  <outline>
    <contour>
      <point x="511" y="1515" type="line"/>
      <point x="439" y="1459"/>
      <point x="272" y="1274"/>
      <point x="237" y="1073" type="curve"/>
      <point x="197" y="850" type="line"/>
      <point x="519" y="850" type="line"/>
      <point x="568" y="1126" type="line"/>
      <point x="403" y="1126" type="line"/>
      <point x="427" y="1264"/>
      <point x="548" y="1411"/>
      <point x="610" y="1469" type="curve"/>
    </contour>
    <contour>
      <point x="987" y="1515" type="line"/>
      <point x="915" y="1459"/>
      <point x="748" y="1274"/>
      <point x="713" y="1073" type="curve"/>
      <point x="673" y="850" type="line"/>
      <point x="995" y="850" type="line"/>
      <point x="1044" y="1126" type="line"/>
      <point x="879" y="1126" type="line"/>
      <point x="903" y="1264"/>
      <point x="1024" y="1411"/>
      <point x="1086" y="1469" type="curve"/>
    </contour>
  </outline>
</glyph>
<glyph name="quotedblright" format="1">
  <advance width="1350"/>
  <unicode hex="201D"/>
  <outline>
    <contour>
      <point x="363" y="851" type="line"/>
      <point x="435" y="907"/>
      <point x="602" y="1092"/>
      <point x="637" y="1293" type="curve"/>
      <point x="677" y="1516" type="line"/>
      <point x="355" y="1516" type="line"/>
      <point x="306" y="1240" type="line"/>
      <point x="471" y="1240" type="line"/>
      <point x="447" y="1102"/>
      <point x="326" y="955"/>
      <point x="264" y="897" type="curve"/>
    </contour>
    <contour>
      <point x="839" y="851" type="line"/>
      <point x="911" y="907"/>
      <point x="1078" y="1092"/>
      <point x="1113" y="1293" type="curve"/>
      <point x="1153" y="1516" type="line"/>
      <point x="831" y="1516" type="line"/>
      <point x="782" y="1240" type="line"/>
      <point x="947" y="1240" type="line"/>
      <point x="923" y="1102"/>
      <point x="802" y="955"/>
      <point x="740" y="897" type="curve"/>
    </contour>
  </outline>
</glyph>
<glyph name="perthousand" format="1">
  <advance width="2769"/>
  <unicode hex="2030"/>
  <outline>
    <contour>
      <point x="441" y="788" type="curve" smooth="yes"/>
      <point x="354" y="788"/>
      <point x="328" y="835"/>
      <point x="328" y="907" type="curve" smooth="yes"/>
      <point x="328" y="941"/>
      <point x="333" y="980"/>
      <point x="341" y="1023" type="curve" smooth="yes"/>
      <point x="357" y="1112" type="line" smooth="yes"/>
      <point x="380" y="1242"/>
      <point x="405" y="1331"/>
      <point x="537" y="1331" type="curve" smooth="yes"/>
      <point x="627" y="1331"/>
      <point x="652" y="1290"/>
      <point x="652" y="1222" type="curve" smooth="yes"/>
      <point x="652" y="1190"/>
      <point x="646" y="1152"/>
      <point x="639" y="1110" type="curve" smooth="yes"/>
      <point x="623" y="1023" type="line" smooth="yes"/>
      <point x="599" y="888"/>
      <point x="568" y="788"/>
    </contour>
    <contour>
      <point x="418" y="658" type="curve"/>
      <point x="648" y="658"/>
      <point x="748" y="808"/>
      <point x="789" y="1037" type="curve"/>
      <point x="798" y="1091" type="line" smooth="yes"/>
      <point x="806" y="1138"/>
      <point x="810" y="1181"/>
      <point x="810" y="1220" type="curve" smooth="yes"/>
      <point x="810" y="1374"/>
      <point x="743" y="1461"/>
      <point x="559" y="1461" type="curve" smooth="yes"/>
      <point x="328" y="1461"/>
      <point x="234" y="1323"/>
      <point x="193" y="1090" type="curve"/>
      <point x="184" y="1037" type="line" smooth="yes"/>
      <point x="176" y="989"/>
      <point x="171" y="945"/>
      <point x="171" y="904" type="curve" smooth="yes"/>
      <point x="171" y="752"/>
      <point x="237" y="658"/>
    </contour>
    <contour>
      <point x="1438" y="111" type="curve" smooth="yes"/>
      <point x="1351" y="111"/>
      <point x="1326" y="157"/>
      <point x="1326" y="229" type="curve" smooth="yes"/>
      <point x="1326" y="263"/>
      <point x="1331" y="303"/>
      <point x="1339" y="346" type="curve" smooth="yes"/>
      <point x="1355" y="435" type="line"/>
      <point x="1377" y="565"/>
      <point x="1402" y="654"/>
      <point x="1534" y="654" type="curve" smooth="yes"/>
      <point x="1624" y="654"/>
      <point x="1650" y="612"/>
      <point x="1650" y="544" type="curve" smooth="yes"/>
      <point x="1650" y="512"/>
      <point x="1644" y="475"/>
      <point x="1637" y="433" type="curve" smooth="yes"/>
      <point x="1622" y="346" type="line" smooth="yes"/>
      <point x="1598" y="211"/>
      <point x="1565" y="111"/>
    </contour>
    <contour>
      <point x="1416" y="-19" type="curve" smooth="yes"/>
      <point x="1646" y="-19"/>
      <point x="1747" y="131"/>
      <point x="1787" y="360" type="curve"/>
      <point x="1797" y="414" type="line" smooth="yes"/>
      <point x="1805" y="461"/>
      <point x="1809" y="503"/>
      <point x="1809" y="542" type="curve" smooth="yes"/>
      <point x="1809" y="696"/>
      <point x="1741" y="784"/>
      <point x="1557" y="784" type="curve" smooth="yes"/>
      <point x="1326" y="784"/>
      <point x="1232" y="646"/>
      <point x="1191" y="413" type="curve"/>
      <point x="1181" y="360" type="line" smooth="yes"/>
      <point x="1173" y="312"/>
      <point x="1168" y="268"/>
      <point x="1168" y="228" type="curve" smooth="yes"/>
      <point x="1168" y="76"/>
      <point x="1234" y="-19"/>
    </contour>
    <contour>
      <point x="2192" y="111" type="curve" smooth="yes"/>
      <point x="2105" y="111"/>
      <point x="2080" y="157"/>
      <point x="2080" y="229" type="curve" smooth="yes"/>
      <point x="2080" y="263"/>
      <point x="2085" y="303"/>
      <point x="2093" y="346" type="curve" smooth="yes"/>
      <point x="2109" y="435" type="line"/>
      <point x="2131" y="565"/>
      <point x="2156" y="654"/>
      <point x="2288" y="654" type="curve" smooth="yes"/>
      <point x="2378" y="654"/>
      <point x="2404" y="612"/>
      <point x="2404" y="544" type="curve" smooth="yes"/>
      <point x="2404" y="512"/>
      <point x="2398" y="475"/>
      <point x="2391" y="433" type="curve" smooth="yes"/>
      <point x="2376" y="346" type="line" smooth="yes"/>
      <point x="2352" y="211"/>
      <point x="2319" y="111"/>
    </contour>
    <contour>
      <point x="2170" y="-19" type="curve" smooth="yes"/>
      <point x="2400" y="-19"/>
      <point x="2501" y="131"/>
      <point x="2541" y="360" type="curve"/>
      <point x="2551" y="414" type="line" smooth="yes"/>
      <point x="2559" y="461"/>
      <point x="2563" y="503"/>
      <point x="2563" y="542" type="curve" smooth="yes"/>
      <point x="2563" y="696"/>
      <point x="2495" y="784"/>
      <point x="2311" y="784" type="curve" smooth="yes"/>
      <point x="2080" y="784"/>
      <point x="1986" y="646"/>
      <point x="1945" y="413" type="curve"/>
      <point x="1935" y="360" type="line" smooth="yes"/>
      <point x="1927" y="312"/>
      <point x="1922" y="268"/>
      <point x="1922" y="228" type="curve" smooth="yes"/>
      <point x="1922" y="76"/>
      <point x="1988" y="-19"/>
    </contour>
    <contour>
      <point x="499" y="0" type="line"/>
      <point x="677" y="0" type="line"/>
      <point x="1470" y="1446" type="line"/>
      <point x="1297" y="1446" type="line"/>
    </contour>
  </outline>
</glyph>
<glyph name="fraction" format="1">
  <advance width="919"/>
  <unicode hex="2044"/>
  <outline>
    <contour>
      <point x="-79" y="0" type="line"/>
      <point x="164" y="0" type="line"/>
      <point x="999" y="1516" type="line"/>
      <point x="756" y="1516" type="line"/>
    </contour>
  </outline>
</glyph>
<glyph name="foursuperior" format="1">
  <advance width="1116"/>
  <unicode hex="2074"/>
  <outline>
    <contour>
      <point x="536" y="616" type="line"/>
      <point x="691" y="616" type="line"/>
      <point x="726" y="813" type="line"/>
      <point x="871" y="813" type="line"/>
      <point x="899" y="973" type="line"/>
      <point x="754" y="973" type="line"/>
      <point x="791" y="1183" type="line"/>
      <point x="636" y="1183" type="line"/>
      <point x="599" y="973" type="line"/>
      <point x="392" y="973" type="line"/>
      <point x="730" y="1566" type="line"/>
      <point x="519" y="1566" type="line"/>
      <point x="160" y="975" type="line"/>
      <point x="131" y="813" type="line"/>
      <point x="571" y="813" type="line"/>
    </contour>
  </outline>
</glyph>
<glyph name="Euro" format="1">
  <advance width="1490"/>
  <unicode hex="20AC"/>
  <outline>
    <contour>
      <point x="806" y="838" type="line"/>
      <point x="829" y="972" type="line"/>
      <point x="87" y="972" type="line"/>
      <point x="64" y="838" type="line"/>
    </contour>
    <contour>
      <point x="752" y="536" type="line"/>
      <point x="776" y="670" type="line"/>
      <point x="34" y="670" type="line"/>
      <point x="10" y="536" type="line"/>
    </contour>
    <component base="C"/>
  </outline>
</glyph>
<glyph name="estimated" format="1">
  <advance width="1205"/>
  <unicode hex="212E"/>
  <outline>
    <contour>
      <point x="715" y="1173" type="curve" smooth="yes"/>
      <point x="818" y="1173"/>
      <point x="913" y="1134"/>
      <point x="956" y="1054" type="curve"/>
      <point x="913" y="808" type="line"/>
      <point x="379" y="808" type="line"/>
      <point x="422" y="1055" type="line"/>
      <point x="498" y="1133"/>
      <point x="611" y="1173"/>
    </contour>
    <contour>
      <point x="95" y="730" type="curve" smooth="yes"/>
      <point x="87" y="687"/>
      <point x="83" y="645"/>
      <point x="83" y="605" type="curve" smooth="yes"/>
      <point x="83" y="353"/>
      <point x="237" y="178"/>
      <point x="565" y="178" type="curve" smooth="yes"/>
      <point x="771" y="178"/>
      <point x="921" y="267"/>
      <point x="1040" y="385" type="curve"/>
      <point x="970" y="464" type="line"/>
      <point x="859" y="363"/>
      <point x="738" y="304"/>
      <point x="586" y="304" type="curve" smooth="yes"/>
      <point x="455" y="304"/>
      <point x="375" y="344"/>
      <point x="318" y="425" type="curve"/>
      <point x="367" y="701" type="line"/>
      <point x="1104" y="701" type="line"/>
      <point x="1115" y="763"/>
      <point x="1121" y="821"/>
      <point x="1121" y="875" type="curve" smooth="yes"/>
      <point x="1121" y="1128"/>
      <point x="996" y="1280"/>
      <point x="734" y="1280" type="curve" smooth="yes"/>
      <point x="414" y="1280"/>
      <point x="150" y="1041"/>
    </contour>
  </outline>
</glyph>
<glyph name="product" format="1">
  <advance width="1776"/>
  <unicode hex="220F"/>
  <outline>
    <contour>
      <point x="581" y="319" type="line"/>
      <point x="712" y="319" type="line"/>
      <point x="771" y="652" type="line"/>
      <point x="949" y="652" type="line" smooth="yes"/>
      <point x="1174" y="652"/>
      <point x="1249" y="764"/>
      <point x="1270" y="908" type="curve" smooth="yes"/>
      <point x="1273" y="929"/>
      <point x="1275" y="948"/>
      <point x="1275" y="966" type="curve" smooth="yes"/>
      <point x="1275" y="1098"/>
      <point x="1188" y="1153"/>
      <point x="1050" y="1153" type="curve" smooth="yes"/>
      <point x="728" y="1153" type="line"/>
    </contour>
    <contour>
      <point x="787" y="742" type="line"/>
      <point x="843" y="1062" type="line"/>
      <point x="1038" y="1062" type="line" smooth="yes"/>
      <point x="1124" y="1062"/>
      <point x="1142" y="1008"/>
      <point x="1142" y="956" type="curve" smooth="yes"/>
      <point x="1142" y="936"/>
      <point x="1140" y="917"/>
      <point x="1137" y="901" type="curve" smooth="yes"/>
      <point x="1133" y="877" type="line"/>
      <point x="1120" y="814"/>
      <point x="1087" y="742"/>
      <point x="973" y="742" type="curve" smooth="yes"/>
    </contour>
    <contour>
      <point x="777" y="82" type="curve" smooth="yes"/>
      <point x="456" y="82"/>
      <point x="250" y="296"/>
      <point x="250" y="597" type="curve" smooth="yes"/>
      <point x="250" y="637"/>
      <point x="253" y="679"/>
      <point x="261" y="722" type="curve" smooth="yes"/>
      <point x="325" y="1086"/>
      <point x="639" y="1361"/>
      <point x="1003" y="1361" type="curve" smooth="yes"/>
      <point x="1326" y="1361"/>
      <point x="1529" y="1148"/>
      <point x="1529" y="848" type="curve" smooth="yes"/>
      <point x="1529" y="808"/>
      <point x="1526" y="765"/>
      <point x="1518" y="722" type="curve" smooth="yes"/>
      <point x="1454" y="357"/>
      <point x="1143" y="82"/>
    </contour>
    <contour>
      <point x="758" y="-14" type="curve" smooth="yes"/>
      <point x="1174" y="-14"/>
      <point x="1550" y="303"/>
      <point x="1624" y="722" type="curve" smooth="yes"/>
      <point x="1632" y="769"/>
      <point x="1636" y="815"/>
      <point x="1636" y="859" type="curve" smooth="yes"/>
      <point x="1636" y="1206"/>
      <point x="1387" y="1456"/>
      <point x="1018" y="1456" type="curve" smooth="yes"/>
      <point x="605" y="1456"/>
      <point x="226" y="1139"/>
      <point x="152" y="722" type="curve" smooth="yes"/>
      <point x="144" y="675"/>
      <point x="140" y="629"/>
      <point x="140" y="585" type="curve" smooth="yes"/>
      <point x="140" y="236"/>
      <point x="391" y="-14"/>
    </contour>
  </outline>
</glyph>
<glyph name="summation" format="1">
  <advance width="1196"/>
  <unicode hex="2211"/>
  <outline>
    <contour>
      <point x="953" y="0" type="line"/>
      <point x="994" y="232" type="line"/>
      <point x="367" y="232" type="line"/>
      <point x="899" y="718" type="line"/>
      <point x="917" y="817" type="line"/>
      <point x="558" y="1246" type="line"/>
      <point x="1173" y="1246" type="line"/>
      <point x="1213" y="1476" type="line"/>
      <point x="259" y="1476" type="line"/>
      <point x="218" y="1243" type="line"/>
      <point x="599" y="762" type="line"/>
      <point x="40" y="235" type="line"/>
      <point x="-1" y="0" type="line"/>
    </contour>
  </outline>
</glyph>
<glyph name="minus" format="1">
  <advance width="792"/>
  <unicode hex="2212"/>
  <outline>
    <contour>
      <point x="106" y="439" type="line"/>
      <point x="648" y="439" type="line"/>
      <point x="680" y="619" type="line"/>
      <point x="138" y="619" type="line"/>
    </contour>
  </outline>
</glyph>
<glyph name="bulletoperator" format="1">
  <advance width="459"/>
  <unicode hex="2219"/>
  <outline>
    <contour>
      <point x="95" y="1251" type="line"/>
      <point x="343" y="1251" type="line"/>
      <point x="387" y="1498" type="line"/>
      <point x="139" y="1498" type="line"/>
    </contour>
  </outline>
</glyph>
<glyph name="radical" format="1">
  <advance width="1298"/>
  <unicode hex="221A"/>
  <outline>
    <contour>
      <point x="-44" y="512" type="line"/>
      <point x="75" y="512" type="line"/>
      <point x="294" y="0" type="line"/>
      <point x="541" y="0" type="line"/>
      <point x="1400" y="1506" type="line"/>
      <point x="1205" y="1506" type="line"/>
      <point x="462" y="229" type="line"/>
      <point x="316" y="623" type="line"/>
      <point x="-25" y="623" type="line"/>
    </contour>
  </outline>
</glyph>
<glyph name="infinity" format="1">
  <advance width="2048"/>
  <unicode hex="221E"/>
  <outline>
    <contour>
      <point x="437" y="360" type="curve" smooth="yes"/>
      <point x="620" y="360"/>
      <point x="998" y="620"/>
      <point x="998" y="620" type="curve"/>
      <point x="998" y="620"/>
      <point x="1286" y="360"/>
      <point x="1469" y="360" type="curve" smooth="yes"/>
      <point x="1631" y="360"/>
      <point x="1783" y="500"/>
      <point x="1830" y="765" type="curve" smooth="yes"/>
      <point x="1838" y="808"/>
      <point x="1841" y="848"/>
      <point x="1841" y="885" type="curve" smooth="yes"/>
      <point x="1841" y="1072"/>
      <point x="1746" y="1170"/>
      <point x="1611" y="1170" type="curve" smooth="yes"/>
      <point x="1428" y="1170"/>
      <point x="1050" y="910"/>
      <point x="1050" y="910" type="curve"/>
      <point x="1050" y="910"/>
      <point x="762" y="1170"/>
      <point x="579" y="1170" type="curve" smooth="yes"/>
      <point x="417" y="1170"/>
      <point x="265" y="1030"/>
      <point x="218" y="765" type="curve" smooth="yes"/>
      <point x="210" y="722"/>
      <point x="207" y="682"/>
      <point x="207" y="645" type="curve" smooth="yes"/>
      <point x="207" y="458"/>
      <point x="302" y="360"/>
    </contour>
    <contour>
      <point x="373" y="714" type="curve" smooth="yes"/>
      <point x="373" y="840"/>
      <point x="434" y="937"/>
      <point x="556" y="937" type="curve" smooth="yes"/>
      <point x="630" y="937"/>
      <point x="792" y="817"/>
      <point x="889" y="765" type="curve"/>
      <point x="774" y="713"/>
      <point x="570" y="593"/>
      <point x="496" y="593" type="curve" smooth="yes"/>
      <point x="407" y="593"/>
      <point x="373" y="642"/>
    </contour>
    <contour>
      <point x="1675" y="816" type="curve" smooth="yes"/>
      <point x="1675" y="690"/>
      <point x="1614" y="593"/>
      <point x="1492" y="593" type="curve" smooth="yes"/>
      <point x="1418" y="593"/>
      <point x="1256" y="713"/>
      <point x="1159" y="765" type="curve"/>
      <point x="1274" y="817"/>
      <point x="1478" y="937"/>
      <point x="1552" y="937" type="curve" smooth="yes"/>
      <point x="1641" y="937"/>
      <point x="1675" y="888"/>
    </contour>
  </outline>
</glyph>
<glyph name="integral" format="1">
  <advance width="693"/>
  <unicode hex="222B"/>
  <outline>
    <contour>
      <point x="26" y="-263" type="curve" smooth="yes"/>
      <point x="254" y="-263"/>
      <point x="299" y="-125"/>
      <point x="329" y="43" type="curve" smooth="yes"/>
      <point x="524" y="1152" type="line" smooth="yes"/>
      <point x="537" y="1227"/>
      <point x="561" y="1292"/>
      <point x="659" y="1292" type="curve" smooth="yes"/>
      <point x="673" y="1292"/>
      <point x="695" y="1288"/>
      <point x="716" y="1286" type="curve"/>
      <point x="742" y="1433" type="line"/>
      <point x="690" y="1439"/>
      <point x="658" y="1442"/>
      <point x="621" y="1442" type="curve" smooth="yes"/>
      <point x="390" y="1442"/>
      <point x="346" y="1303"/>
      <point x="315" y="1126" type="curve" smooth="yes"/>
      <point x="119" y="16" type="line" smooth="yes"/>
      <point x="106" y="-57"/>
      <point x="82" y="-114"/>
      <point x="-8" y="-114" type="curve" smooth="yes"/>
      <point x="-23" y="-114"/>
      <point x="-49" y="-111"/>
      <point x="-72" y="-107" type="curve"/>
      <point x="-98" y="-254" type="line"/>
      <point x="-45" y="-261"/>
      <point x="-12" y="-263"/>
    </contour>
  </outline>
</glyph>
<glyph name="approxequal" format="1">
  <advance width="1024"/>
  <unicode hex="2248"/>
  <outline>
    <contour>
      <point x="659" y="738" type="curve" smooth="yes"/>
      <point x="794" y="738"/>
      <point x="920" y="839"/>
      <point x="953" y="1027" type="curve"/>
      <point x="844" y="1027" type="line"/>
      <point x="832" y="956"/>
      <point x="790" y="905"/>
      <point x="700" y="905" type="curve" smooth="yes"/>
      <point x="620" y="905"/>
      <point x="447" y="1043"/>
      <point x="294" y="1043" type="curve" smooth="yes"/>
      <point x="159" y="1043"/>
      <point x="35" y="943"/>
      <point x="1" y="754" type="curve"/>
      <point x="109" y="754" type="line"/>
      <point x="122" y="825"/>
      <point x="164" y="877"/>
      <point x="255" y="877" type="curve" smooth="yes"/>
      <point x="334" y="877"/>
      <point x="505" y="738"/>
    </contour>
    <contour>
      <point x="729" y="1131" type="curve" smooth="yes"/>
      <point x="864" y="1131"/>
      <point x="990" y="1232"/>
      <point x="1023" y="1420" type="curve"/>
      <point x="914" y="1420" type="line"/>
      <point x="901" y="1349"/>
      <point x="859" y="1298"/>
      <point x="769" y="1298" type="curve" smooth="yes"/>
      <point x="689" y="1298"/>
      <point x="517" y="1436"/>
      <point x="364" y="1436" type="curve" smooth="yes"/>
      <point x="229" y="1436"/>
      <point x="104" y="1336"/>
      <point x="71" y="1147" type="curve"/>
      <point x="179" y="1147" type="line"/>
      <point x="191" y="1218"/>
      <point x="233" y="1270"/>
      <point x="324" y="1270" type="curve" smooth="yes"/>
      <point x="403" y="1270"/>
      <point x="575" y="1131"/>
    </contour>
  </outline>
</glyph>
<glyph name="notequal" format="1">
  <advance width="919"/>
  <unicode hex="2260"/>
  <outline>
    <contour>
      <point x="43" y="150" type="line"/>
      <point x="216" y="150" type="line"/>
      <point x="821" y="1094" type="line"/>
      <point x="648" y="1094" type="line"/>
    </contour>
    <component base="equal"/>
  </outline>
</glyph>
<glyph name="lessequal" format="1">
  <advance width="1252"/>
  <unicode hex="2264"/>
  <outline>
    <contour>
      <point x="951" y="239" type="line"/>
      <point x="992" y="470" type="line"/>
      <point x="441" y="764" type="line"/>
      <point x="1096" y="1058" type="line"/>
      <point x="1137" y="1289" type="line"/>
      <point x="279" y="872" type="line"/>
      <point x="240" y="653" type="line"/>
    </contour>
    <contour>
      <point x="115" y="0" type="line"/>
      <point x="907" y="0" type="line"/>
      <point x="938" y="175" type="line"/>
      <point x="146" y="175" type="line"/>
    </contour>
  </outline>
</glyph>
<glyph name="greaterequal" format="1">
  <advance width="1250"/>
  <unicode hex="2265"/>
  <outline>
    <contour>
      <point x="173" y="236" type="line"/>
      <point x="989" y="651" type="line"/>
      <point x="1028" y="870" type="line"/>
      <point x="358" y="1286" type="line"/>
      <point x="317" y="1053" type="line"/>
      <point x="829" y="761" type="line"/>
      <point x="214" y="465" type="line"/>
    </contour>
    <contour>
      <point x="71" y="0" type="line"/>
      <point x="953" y="0" type="line"/>
      <point x="983" y="175" type="line"/>
      <point x="101" y="175" type="line"/>
    </contour>
  </outline>
</glyph>
<glyph name="lozenge" format="1">
  <advance width="1104"/>
  <unicode hex="25CA"/>
  <outline>
    <contour>
      <point x="333" y="0" type="line"/>
      <point x="531" y="0" type="line"/>
      <point x="1002" y="754" type="line"/>
      <point x="797" y="1505" type="line"/>
      <point x="599" y="1505" type="line"/>
      <point x="102" y="754" type="line"/>
    </contour>
    <contour>
      <point x="467" y="188" type="line"/>
      <point x="316" y="754" type="line"/>
      <point x="665" y="1307" type="line"/>
      <point x="793" y="754" type="line"/>
    </contour>
  </outline>
</glyph>
